<?xml version="1.0" standalone="yes"?>

<svg version="1.1" viewBox="0.0 0.0 576.0 353.40419947506564" fill="none" stroke="none" stroke-linecap="square" stroke-miterlimit="10" xmlns="http://www.w3.org/2000/svg" xmlns:xlink="http://www.w3.org/1999/xlink"><clipPath id="p.0"><path d="m0 0l576.0 0l0 353.4042l-576.0 0l0 -353.4042z" clip-rule="nonzero"></path></clipPath><g clip-path="url(#p.0)"><path fill="#000000" fill-opacity="0.0" d="m0 0l576.0 0l0 353.4042l-576.0 0z" fill-rule="nonzero"></path><path fill="#ffffff" d="m37.952755 2.8191285l500.09448 0l0 352.37796l-500.09448 0z" fill-rule="nonzero"></path><path fill="#cc0000" d="m53.171505 77.20623l2.46875 1.515625q-1.359375 2.71875 -1.421875 5.21875l0 3.25l-4.203125 0l0 -2.953125q0.015625 -1.671875 0.8125 -3.5625q0.875 -2.03125 2.34375 -3.46875zm6.0 0l2.46875 1.515625q-1.359375 2.71875 -1.421875 5.21875l0 3.25l-4.203125 0l0 -2.953125q0.015625 -1.671875 0.8125 -3.5625q0.875 -2.03125 2.34375 -3.46875zm23.936726 6.859375l-6.859375 0l0 23.0625l-5.609375 0l0 -23.0625l-6.750004 0l0 -4.671875l19.218754 0l0 4.671875zm8.020386 4.265625q1.75 -2.1875 4.296875 -2.1875q2.828125 0 4.28125 1.984375q1.46875 1.96875 1.5 5.890625l0 13.109375l-5.40625 0l0 -13.046875q0 -1.8125 -0.5625 -2.609375q-0.5625 -0.8125 -1.828125 -0.8125q-1.46875 0 -2.28125 1.34375l0 15.125l-5.390625 0l0 -29.25l5.390625 0l0 10.453125zm22.088623 19.171875q-4.15625 0 -6.484375 -2.46875q-2.3125 -2.484375 -2.3125 -7.078125l0 -1.640625q0 -4.875 2.125 -7.515625q2.140625 -2.65625 6.125 -2.65625q3.875 0 5.828125 2.484375q1.96875 2.484375 2.015625 7.359375l0 2.640625l-10.71875 0q0.109375 2.296875 1.0 3.359375q0.90625 1.046875 2.765625 1.046875q2.703125 0 4.515625 -1.84375l2.109375 3.25q-0.984375 1.375 -2.875 2.21875q-1.875 0.84375 -4.09375 0.84375zm-3.390625 -12.640625l5.390625 0l0 -0.5q-0.03125 -1.84375 -0.609375 -2.796875q-0.5625 -0.953125 -1.984375 -0.953125q-1.40625 0 -2.046875 1.015625q-0.625 1.015625 -0.75 3.234375zm20.169495 3.296875l2.75 -11.640625l5.75 0l-6.78125 23.6875q-1.515625 5.25 -5.734375 5.25q-0.96875 0 -2.203125 -0.375l0 -4.203125l0.625 0.015625q1.265625 0 1.890625 -0.484375q0.640625 -0.484375 0.96875 -1.6875l0.421875 -1.390625l-5.9375 -20.8125l5.78125 0l2.46875 11.640625zm24.81717 -9.828125q1.75 -2.1875 4.296875 -2.1875q2.828125 0 4.28125 1.984375q1.46875 1.96875 1.5 5.890625l0 13.109375l-5.40625 0l0 -13.046875q0 -1.8125 -0.5625 -2.609375q-0.5625 -0.8125 -1.828125 -0.8125q-1.46875 0 -2.28125 1.34375l0 15.125l-5.390625 0l0 -29.25l5.390625 0l0 10.453125zm23.557373 18.796875q-0.234375 -0.46875 -0.453125 -1.59375q-1.453125 1.96875 -3.921875 1.96875q-2.59375 0 -4.296875 -1.703125q-1.703125 -1.71875 -1.703125 -4.4375q0 -3.234375 2.0625 -5.0q2.0625 -1.78125 5.953125 -1.828125l1.640625 0l0 -1.65625q0 -1.390625 -0.484375 -1.953125q-0.46875 -0.578125 -1.390625 -0.578125q-2.015625 0 -2.015625 2.359375l-5.390625 0q0 -2.84375 2.140625 -4.703125q2.140625 -1.859375 5.421875 -1.859375q3.390625 0 5.25 1.765625q1.859375 1.75 1.859375 5.03125l0 9.6875q0.03125 2.671875 0.75 4.171875l0 0.328125l-5.421875 0zm-3.1875 -3.84375q0.90625 0 1.53125 -0.359375q0.625 -0.375 0.9375 -0.859375l0 -4.28125l-1.296875 0q-1.375 0 -2.171875 0.875q-0.78125 0.875 -0.78125 2.34375q0 2.28125 1.78125 2.28125zm18.351868 -3.78125l2.609375 -12.984375l5.625 0l-5.65625 20.609375l-5.140625 0l-5.6875 -20.609375l5.640625 0l2.609375 12.984375zm18.927612 8.0q-4.15625 0 -6.484375 -2.46875q-2.3125 -2.484375 -2.3125 -7.078125l0 -1.640625q0 -4.875 2.125 -7.515625q2.140625 -2.65625 6.125 -2.65625q3.875 0 5.828125 2.484375q1.96875 2.484375 2.015625 7.359375l0 2.640625l-10.71875 0q0.109375 2.296875 1.0 3.359375q0.90625 1.046875 2.765625 1.046875q2.703125 0 4.515625 -1.84375l2.109375 3.25q-0.984375 1.375 -2.875 2.21875q-1.875 0.84375 -4.09375 0.84375zm-3.390625 -12.640625l5.390625 0l0 -0.5q-0.03125 -1.84375 -0.609375 -2.796875q-0.5625 -0.953125 -1.984375 -0.953125q-1.40625 0 -2.046875 1.015625q-0.625 1.015625 -0.75 3.234375zm38.531677 2.609375q0 4.859375 -1.671875 7.453125q-1.65625 2.578125 -4.953125 2.578125q-2.515625 0 -4.046875 -2.03125l0 9.578125l-5.375 0l0 -28.53125l4.984375 0l0.1875 1.890625q1.546875 -2.265625 4.203125 -2.265625q3.296875 0 4.96875 2.40625q1.671875 2.390625 1.703125 7.34375l0 1.578125zm-5.375 -1.34375q0 -3.0 -0.65625 -4.234375q-0.65625 -1.234375 -2.21875 -1.234375q-1.65625 0 -2.421875 1.390625l0 9.65625q0.734375 1.328125 2.46875 1.328125q1.59375 0 2.203125 -1.34375q0.625 -1.359375 0.625 -4.21875l0 -1.34375zm14.1237335 11.0l-5.4218597 0l0 -29.25l5.4218597 0l0 29.25zm13.864563 0q-0.234375 -0.46875 -0.453125 -1.59375q-1.453125 1.96875 -3.921875 1.96875q-2.59375 0 -4.296875 -1.703125q-1.703125 -1.71875 -1.703125 -4.4375q0 -3.234375 2.0625 -5.0q2.0625 -1.78125 5.953125 -1.828125l1.640625 0l0 -1.65625q0 -1.390625 -0.484375 -1.953125q-0.46875 -0.578125 -1.390625 -0.578125q-2.015625 0 -2.015625 2.359375l-5.390625 0q0 -2.84375 2.140625 -4.703125q2.140625 -1.859375 5.421875 -1.859375q3.390625 0 5.25 1.765625q1.859375 1.75 1.859375 5.03125l0 9.6875q0.03125 2.671875 0.75 4.171875l0 0.328125l-5.421875 0zm-3.1875 -3.84375q0.90625 0 1.53125 -0.359375q0.625 -0.375 0.9375 -0.859375l0 -4.28125l-1.296875 0q-1.375 0 -2.171875 0.875q-0.78125 0.875 -0.78125 2.34375q0 2.28125 1.78125 2.28125zm18.195618 -5.125l2.75 -11.640625l5.75 0l-6.78125 23.6875q-1.515625 5.25 -5.734375 5.25q-0.96875 0 -2.203125 -0.375l0 -4.203125l0.625 0.015625q1.265625 0 1.890625 -0.484375q0.640625 -0.484375 0.96875 -1.6875l0.421875 -1.390625l-5.9375 -20.8125l5.78125 0l2.46875 11.640625zm18.970642 9.34375q-4.15625 0 -6.484375 -2.46875q-2.3125 -2.484375 -2.3125 -7.078125l0 -1.640625q0 -4.875 2.125 -7.515625q2.140625 -2.65625 6.125 -2.65625q3.875 0 5.828125 2.484375q1.96875 2.484375 2.015625 7.359375l0 2.640625l-10.71875 0q0.109375 2.296875 1.0 3.359375q0.90625 1.046875 2.765625 1.046875q2.703125 0 4.515625 -1.84375l2.109375 3.25q-0.984375 1.375 -2.875 2.21875q-1.875 0.84375 -4.09375 0.84375zm-3.390625 -12.640625l5.390625 0l0 -0.5q-0.03125 -1.84375 -0.609375 -2.796875q-0.5625 -0.953125 -1.984375 -0.953125q-1.40625 0 -2.046875 1.015625q-0.625 1.015625 -0.75 3.234375zm12.84137 1.328125q0 -5.0625 1.71875 -7.546875q1.71875 -2.5 4.984375 -2.5q2.390625 0 3.96875 2.0625l0 -10.328125l5.421875 0l0 29.25l-4.890625 0l-0.25 -2.09375q-1.65625 2.46875 -4.265625 2.46875q-3.234375 0 -4.9375 -2.46875q-1.703125 -2.484375 -1.75 -7.28125l0 -1.5625zm5.40625 1.359375q0 3.046875 0.640625 4.265625q0.65625 1.203125 2.203125 1.203125q1.59375 0 2.421875 -1.4375l0 -9.40625q-0.796875 -1.515625 -2.40625 -1.515625q-1.484375 0 -2.171875 1.203125q-0.6875 1.1875 -0.6875 4.265625l0 1.421875zm33.176697 9.578125q-0.234375 -0.46875 -0.453125 -1.59375q-1.453125 1.96875 -3.921875 1.96875q-2.59375 0 -4.296875 -1.703125q-1.703125 -1.71875 -1.703125 -4.4375q0 -3.234375 2.0625 -5.0q2.0625 -1.78125 5.953125 -1.828125l1.640625 0l0 -1.65625q0 -1.390625 -0.484375 -1.953125q-0.46875 -0.578125 -1.390625 -0.578125q-2.015625 0 -2.015625 2.359375l-5.390625 0q0 -2.84375 2.140625 -4.703125q2.140625 -1.859375 5.421875 -1.859375q3.390625 0 5.25 1.765625q1.859375 1.75 1.859375 5.03125l0 9.6875q0.03125 2.671875 0.75 4.171875l0 0.328125l-5.421875 0zm-3.1875 -3.84375q0.90625 0 1.53125 -0.359375q0.625 -0.375 0.9375 -0.859375l0 -4.28125l-1.296875 0q-1.375 0 -2.171875 0.875q-0.78125 0.875 -0.78125 2.34375q0 2.28125 1.78125 2.28125zm16.523743 -16.765625l0.15625 2.046875q1.828125 -2.421875 4.78125 -2.421875q5.3125 0 5.46875 7.4375l0 13.546875l-5.40625 0l0 -13.140625q0 -1.75 -0.53125 -2.53125q-0.53125 -0.796875 -1.84375 -0.796875q-1.453125 0 -2.28125 1.5l0 14.96875l-5.40625 0l0 -20.609375l5.0625 0zm31.325806 20.984375q-4.15625 0 -6.484375 -2.46875q-2.3125 -2.484375 -2.3125 -7.078125l0 -1.640625q0 -4.875 2.125 -7.515625q2.140625 -2.65625 6.125 -2.65625q3.875 0 5.828125 2.484375q1.96875 2.484375 2.015625 7.359375l0 2.640625l-10.71875 0q0.109375 2.296875 1.0 3.359375q0.90625 1.046875 2.765625 1.046875q2.703125 0 4.515625 -1.84375l2.109375 3.25q-0.984375 1.375 -2.875 2.21875q-1.875 0.84375 -4.09375 0.84375zm-3.390625 -12.640625l5.390625 0l0 -0.5q-0.03125 -1.84375 -0.609375 -2.796875q-0.5625 -0.953125 -1.984375 -0.953125q-1.40625 0 -2.046875 1.015625q-0.625 1.015625 -0.75 3.234375zm22.68512 6.75q0 -0.6875 -0.65625 -1.265625q-0.65625 -0.59375 -2.921875 -1.578125q-3.328125 -1.359375 -4.578125 -2.796875q-1.25 -1.453125 -1.25 -3.609375q0 -2.703125 1.953125 -4.453125q1.953125 -1.765625 5.171875 -1.765625q3.390625 0 5.421875 1.75q2.046875 1.75 2.046875 4.703125l-5.390625 0q0 -2.515625 -2.09375 -2.515625q-0.859375 0 -1.421875 0.53125q-0.546875 0.53125 -0.546875 1.484375q0 0.6875 0.609375 1.21875q0.609375 0.515625 2.875 1.484375q3.296875 1.21875 4.65625 2.71875q1.359375 1.5 1.359375 3.875q0 2.765625 -2.078125 4.4375q-2.0625 1.671875 -5.4375 1.671875q-2.265625 0 -4.0 -0.875q-1.734375 -0.890625 -2.71875 -2.46875q-0.96875 -1.578125 -0.96875 -3.40625l5.125 0q0.03125 1.40625 0.640625 2.109375q0.625 0.703125 2.03125 0.703125q2.171875 0 2.171875 -1.953125zm17.553864 0q0 -0.6875 -0.65625 -1.265625q-0.65625 -0.59375 -2.921875 -1.578125q-3.328125 -1.359375 -4.578125 -2.796875q-1.25 -1.453125 -1.25 -3.609375q0 -2.703125 1.953125 -4.453125q1.953125 -1.765625 5.171875 -1.765625q3.390625 0 5.421875 1.75q2.046875 1.75 2.046875 4.703125l-5.390625 0q0 -2.515625 -2.09375 -2.515625q-0.859375 0 -1.421875 0.53125q-0.546875 0.53125 -0.546875 1.484375q0 0.6875 0.609375 1.21875q0.609375 0.515625 2.875 1.484375q3.296875 1.21875 4.65625 2.71875q1.359375 1.5 1.359375 3.875q0 2.765625 -2.078125 4.4375q-2.0625 1.671875 -5.4375 1.671875q-2.265625 0 -4.0 -0.875q-1.734375 -0.890625 -2.71875 -2.46875q-0.96875 -1.578125 -0.96875 -3.40625l5.125 0q0.03125 1.40625 0.640625 2.109375q0.625 0.703125 2.03125 0.703125q2.171875 0 2.171875 -1.953125zm16.756989 5.890625q-4.15625 0 -6.484375 -2.46875q-2.3125 -2.484375 -2.3125 -7.078125l0 -1.640625q0 -4.875 2.125 -7.515625q2.140625 -2.65625 6.125 -2.65625q3.875 0 5.828125 2.484375q1.96875 2.484375 2.015625 7.359375l0 2.640625l-10.71875 0q0.109375 2.296875 1.0 3.359375q0.90625 1.046875 2.765625 1.046875q2.703125 0 4.515625 -1.84375l2.109375 3.25q-0.984375 1.375 -2.875 2.21875q-1.875 0.84375 -4.09375 0.84375zm-3.390625 -12.640625l5.390625 0l0 -0.5q-0.03125 -1.84375 -0.609375 -2.796875q-0.5625 -0.953125 -1.984375 -0.953125q-1.40625 0 -2.046875 1.015625q-0.625 1.015625 -0.75 3.234375zm18.49762 -8.34375l0.15625 2.046875q1.828125 -2.421875 4.78125 -2.421875q5.3125 0 5.46875 7.4375l0 13.546875l-5.40625 0l0 -13.140625q0 -1.75 -0.53125 -2.53125q-0.53125 -0.796875 -1.84375 -0.796875q-1.453125 0 -2.28125 1.5l0 14.96875l-5.40625 0l0 -20.609375l5.0625 0zm20.369873 -5.0625l0 5.0625l2.75 0l0 4.0625l-2.75 0l0 10.21875q0 1.21875 0.328125 1.6875q0.328125 0.453125 1.28125 0.453125q0.78125 0 1.28125 -0.140625l-0.046875 4.1875q-1.359375 0.515625 -2.96875 0.515625q-5.21875 0 -5.265625 -5.96875l0 -10.953125l-2.390625 0l0 -4.0625l2.390625 0l0 -5.0625l5.390625 0zm11.263062 25.671875l-5.421875 0l0 -20.609375l5.421875 0l0 20.609375zm-5.65625 -25.9375q0 -1.25 0.796875 -2.046875q0.796875 -0.8125 2.125 -0.8125q1.34375 0 2.140625 0.8125q0.796875 0.796875 0.796875 2.046875q0 1.234375 -0.796875 2.0625q-0.78125 0.8125 -2.140625 0.8125q-1.34375 0 -2.140625 -0.8125q-0.78125 -0.828125 -0.78125 -2.0625zm19.520813 25.9375q-0.234375 -0.46875 -0.453125 -1.59375q-1.453125 1.96875 -3.921875 1.96875q-2.59375 0 -4.296875 -1.703125q-1.703125 -1.71875 -1.703125 -4.4375q0 -3.234375 2.0625 -5.0q2.0625 -1.78125 5.953125 -1.828125l1.640625 0l0 -1.65625q0 -1.390625 -0.484375 -1.953125q-0.46875 -0.578125 -1.390625 -0.578125q-2.015625 0 -2.015625 2.359375l-5.390625 0q0 -2.84375 2.140625 -4.703125q2.140625 -1.859375 5.421875 -1.859375q3.390625 0 5.25 1.765625q1.859375 1.75 1.859375 5.03125l0 9.6875q0.03125 2.671875 0.75 4.171875l0 0.328125l-5.421875 0zm-3.1875 -3.84375q0.90625 0 1.53125 -0.359375q0.625 -0.375 0.9375 -0.859375l0 -4.28125l-1.296875 0q-1.375 0 -2.171875 0.875q-0.78125 0.875 -0.78125 2.34375q0 2.28125 1.78125 2.28125zm17.258118 3.84375l-5.421875 0l0 -29.25l5.421875 0l0 29.25z" fill-rule="nonzero"></path><path fill="#cc0000" d="m77.895874 144.72185l-1.78125 -0.15625q-2.21875 0 -3.0 1.953125l0 13.609375l-5.40625 0l0 -20.609375l5.09375 0l0.140625 2.234375q1.28125 -2.609375 3.53125 -2.609375q0.90625 0 1.484375 0.25l-0.0625 5.328125zm2.019333 4.4375q0 -4.6875 2.203125 -7.34375q2.21875 -2.671875 6.125 -2.671875q3.9375 0 6.140625 2.671875q2.21875 2.65625 2.21875 7.375l0 1.328125q0 4.703125 -2.1875 7.34375q-2.1875 2.640625 -6.140625 2.640625q-3.953125 0 -6.15625 -2.65625q-2.203125 -2.65625 -2.203125 -7.375l0 -1.3125zm5.40625 1.359375q0 5.515625 2.953125 5.515625q2.734375 0 2.9375 -4.609375l0.015625 -2.265625q0 -2.8125 -0.78125 -4.171875q-0.78125 -1.375 -2.203125 -1.375q-1.375 0 -2.15625 1.375q-0.765625 1.359375 -0.765625 4.171875l0 1.359375zm20.124374 9.609375l-5.421875 0l0 -29.25l5.421875 0l0 29.25zm12.395813 0.375q-4.15625 0 -6.484375 -2.46875q-2.3125 -2.484375 -2.3125 -7.078125l0 -1.640625q0 -4.875 2.125 -7.515625q2.140625 -2.65625 6.125 -2.65625q3.875 0 5.828125 2.484375q1.96875 2.484375 2.015625 7.359375l0 2.640625l-10.71875 0q0.109375 2.296875 1.0 3.359375q0.90625 1.046875 2.765625 1.046875q2.703125 0 4.515625 -1.84375l2.109375 3.25q-0.984375 1.375 -2.875 2.21875q-1.875 0.84375 -4.09375 0.84375zm-3.390625 -12.640625l5.390625 0l0 -0.5q-0.03125 -1.84375 -0.609375 -2.796875q-0.5625 -0.953125 -1.984375 -0.953125q-1.40625 0 -2.046875 1.015625q-0.625 1.015625 -0.75 3.234375zm28.141052 12.265625l-5.421875 0l0 -20.609375l5.421875 0l0 20.609375zm-5.65625 -25.9375q0 -1.25 0.796875 -2.046875q0.796875 -0.8125 2.125 -0.8125q1.34375 0 2.140625 0.8125q0.796875 0.796875 0.796875 2.046875q0 1.234375 -0.796875 2.0625q-0.78125 0.8125 -2.140625 0.8125q-1.34375 0 -2.140625 -0.8125q-0.78125 -0.828125 -0.78125 -2.0625zm14.661438 5.328125l0.15625 2.046875q1.828125 -2.421875 4.78125 -2.421875q5.3125 0 5.46875 7.4375l0 13.546875l-5.40625 0l0 -13.140625q0 -1.75 -0.53125 -2.53125q-0.53125 -0.796875 -1.84375 -0.796875q-1.453125 0 -2.28125 1.5l0 14.96875l-5.40625 0l0 -20.609375l5.0625 0zm31.325806 20.984375q-4.15625 0 -6.484375 -2.46875q-2.3125 -2.484375 -2.3125 -7.078125l0 -1.640625q0 -4.875 2.125 -7.515625q2.140625 -2.65625 6.125 -2.65625q3.875 0 5.828125 2.484375q1.96875 2.484375 2.015625 7.359375l0 2.640625l-10.71875 0q0.109375 2.296875 1.0 3.359375q0.90625 1.046875 2.765625 1.046875q2.703125 0 4.515625 -1.84375l2.109375 3.25q-0.984375 1.375 -2.875 2.21875q-1.875 0.84375 -4.09375 0.84375zm-3.390625 -12.640625l5.390625 0l0 -0.5q-0.03125 -1.84375 -0.609375 -2.796875q-0.5625 -0.953125 -1.984375 -0.953125q-1.40625 0 -2.046875 1.015625q-0.625 1.015625 -0.75 3.234375zm18.49762 -8.34375l0.15625 2.046875q1.828125 -2.421875 4.78125 -2.421875q5.3125 0 5.46875 7.4375l0 13.546875l-5.40625 0l0 -13.140625q0 -1.75 -0.53125 -2.53125q-0.53125 -0.796875 -1.84375 -0.796875q-1.453125 0 -2.28125 1.5l0 14.96875l-5.40625 0l0 -20.609375l5.0625 0zm13.447998 9.671875q0 -5.0625 1.828125 -7.546875q1.828125 -2.5 5.125 -2.5q2.796875 0 4.328125 2.203125l0.203125 -1.828125l4.859375 0l0 20.609375q0 3.9375 -2.21875 6.015625q-2.203125 2.09375 -6.328125 2.09375q-1.703125 0 -3.578125 -0.671875q-1.859375 -0.671875 -2.765625 -1.71875l1.8125 -3.734375q0.75 0.796875 1.96875 1.296875q1.21875 0.515625 2.3125 0.515625q1.8125 0 2.59375 -0.875q0.796875 -0.859375 0.8125 -2.78125l0 -1.78125q-1.546875 2.015625 -4.015625 2.015625q-3.296875 0 -5.09375 -2.546875q-1.796875 -2.5625 -1.84375 -7.234375l0 -1.53125zm5.390625 1.359375q0 2.859375 0.734375 4.171875q0.75 1.296875 2.375 1.296875q1.65625 0 2.453125 -1.203125l0 -9.84375q-0.84375 -1.3125 -2.421875 -1.3125q-1.59375 0 -2.375 1.3125q-0.765625 1.3125 -0.765625 4.21875l0 1.359375zm24.48825 9.578125q-0.234375 -0.46875 -0.453125 -1.59375q-1.453125 1.96875 -3.921875 1.96875q-2.59375 0 -4.296875 -1.703125q-1.703125 -1.71875 -1.703125 -4.4375q0 -3.234375 2.0625 -5.0q2.0625 -1.78125 5.953125 -1.828125l1.640625 0l0 -1.65625q0 -1.390625 -0.484375 -1.953125q-0.46875 -0.578125 -1.390625 -0.578125q-2.015625 0 -2.015625 2.359375l-5.390625 0q0 -2.84375 2.140625 -4.703125q2.140625 -1.859375 5.421875 -1.859375q3.390625 0 5.25 1.765625q1.859375 1.75 1.859375 5.03125l0 9.6875q0.03125 2.671875 0.75 4.171875l0 0.328125l-5.421875 0zm-3.1875 -3.84375q0.90625 0 1.53125 -0.359375q0.625 -0.375 0.9375 -0.859375l0 -4.28125l-1.296875 0q-1.375 0 -2.171875 0.875q-0.78125 0.875 -0.78125 2.34375q0 2.28125 1.78125 2.28125zm10.945618 -7.09375q0 -5.0625 1.828125 -7.546875q1.828125 -2.5 5.125 -2.5q2.796875 0 4.328125 2.203125l0.203125 -1.828125l4.859375 0l0 20.609375q0 3.9375 -2.21875 6.015625q-2.203125 2.09375 -6.328125 2.09375q-1.703125 0 -3.578125 -0.671875q-1.859375 -0.671875 -2.765625 -1.71875l1.8125 -3.734375q0.75 0.796875 1.96875 1.296875q1.21875 0.515625 2.3125 0.515625q1.8125 0 2.59375 -0.875q0.796875 -0.859375 0.8125 -2.78125l0 -1.78125q-1.546875 2.015625 -4.015625 2.015625q-3.296875 0 -5.09375 -2.546875q-1.796875 -2.5625 -1.84375 -7.234375l0 -1.53125zm5.390625 1.359375q0 2.859375 0.734375 4.171875q0.75 1.296875 2.375 1.296875q1.65625 0 2.453125 -1.203125l0 -9.84375q-0.84375 -1.3125 -2.421875 -1.3125q-1.59375 0 -2.375 1.3125q-0.765625 1.3125 -0.765625 4.21875l0 1.359375zm20.36325 9.578125l-5.421875 0l0 -20.609375l5.421875 0l0 20.609375zm-5.65625 -25.9375q0 -1.25 0.796875 -2.046875q0.796875 -0.8125 2.125 -0.8125q1.34375 0 2.140625 0.8125q0.796875 0.796875 0.796875 2.046875q0 1.234375 -0.796875 2.0625q-0.78125 0.8125 -2.140625 0.8125q-1.34375 0 -2.140625 -0.8125q-0.78125 -0.828125 -0.78125 -2.0625zm14.661438 5.328125l0.15625 2.046875q1.828125 -2.421875 4.78125 -2.421875q5.3125 0 5.46875 7.4375l0 13.546875l-5.40625 0l0 -13.140625q0 -1.75 -0.53125 -2.53125q-0.53125 -0.796875 -1.84375 -0.796875q-1.453125 0 -2.28125 1.5l0 14.96875l-5.40625 0l0 -20.609375l5.0625 0zm13.447998 9.671875q0 -5.0625 1.828125 -7.546875q1.828125 -2.5 5.125 -2.5q2.796875 0 4.328125 2.203125l0.203125 -1.828125l4.859375 0l0 20.609375q0 3.9375 -2.21875 6.015625q-2.203125 2.09375 -6.328125 2.09375q-1.703125 0 -3.578125 -0.671875q-1.859375 -0.671875 -2.765625 -1.71875l1.8125 -3.734375q0.75 0.796875 1.96875 1.296875q1.21875 0.515625 2.3125 0.515625q1.8125 0 2.59375 -0.875q0.796875 -0.859375 0.8125 -2.78125l0 -1.78125q-1.546875 2.015625 -4.015625 2.015625q-3.296875 0 -5.09375 -2.546875q-1.796875 -2.5625 -1.84375 -7.234375l0 -1.53125zm5.390625 1.359375q0 2.859375 0.734375 4.171875q0.75 1.296875 2.375 1.296875q1.65625 0 2.453125 -1.203125l0 -9.84375q-0.84375 -1.3125 -2.421875 -1.3125q-1.59375 0 -2.375 1.3125q-0.765625 1.3125 -0.765625 4.21875l0 1.359375zm28.866058 -9.21875q1.75 -2.1875 4.296875 -2.1875q2.828125 0 4.28125 1.984375q1.46875 1.96875 1.5 5.890625l0 13.109375l-5.40625 0l0 -13.046875q0 -1.8125 -0.5625 -2.609375q-0.5625 -0.8125 -1.828125 -0.8125q-1.46875 0 -2.28125 1.34375l0 15.125l-5.390625 0l0 -29.25l5.390625 0l0 10.453125zm19.432373 18.796875l-5.421875 0l0 -20.609375l5.421875 0l0 20.609375zm-5.65625 -25.9375q0 -1.25 0.796875 -2.046875q0.796875 -0.8125 2.125 -0.8125q1.34375 0 2.140625 0.8125q0.796875 0.796875 0.796875 2.046875q0 1.234375 -0.796875 2.0625q-0.78125 0.8125 -2.140625 0.8125q-1.34375 0 -2.140625 -0.8125q-0.78125 -0.828125 -0.78125 -2.0625zm9.083313 15.0q0 -5.0625 1.828125 -7.546875q1.828125 -2.5 5.125 -2.5q2.796875 0 4.328125 2.203125l0.203125 -1.828125l4.859375 0l0 20.609375q0 3.9375 -2.21875 6.015625q-2.203125 2.09375 -6.328125 2.09375q-1.703125 0 -3.578125 -0.671875q-1.859375 -0.671875 -2.765625 -1.71875l1.8125 -3.734375q0.75 0.796875 1.96875 1.296875q1.21875 0.515625 2.3125 0.515625q1.8125 0 2.59375 -0.875q0.796875 -0.859375 0.8125 -2.78125l0 -1.78125q-1.546875 2.015625 -4.015625 2.015625q-3.296875 0 -5.09375 -2.546875q-1.796875 -2.5625 -1.84375 -7.234375l0 -1.53125zm5.390625 1.359375q0 2.859375 0.734375 4.171875q0.75 1.296875 2.375 1.296875q1.65625 0 2.453125 -1.203125l0 -9.84375q-0.84375 -1.3125 -2.421875 -1.3125q-1.59375 0 -2.375 1.3125q-0.765625 1.3125 -0.765625 4.21875l0 1.359375zm19.957 -9.21875q1.75 -2.1875 4.296875 -2.1875q2.828125 0 4.28125 1.984375q1.46875 1.96875 1.5 5.890625l0 13.109375l-5.40625 0l0 -13.046875q0 -1.8125 -0.5625 -2.609375q-0.5625 -0.8125 -1.828125 -0.8125q-1.46875 0 -2.28125 1.34375l0 15.125l-5.390625 0l0 -29.25l5.390625 0l0 10.453125zm31.794556 13.28125q0 -0.6875 -0.65625 -1.265625q-0.65625 -0.59375 -2.921875 -1.578125q-3.328125 -1.359375 -4.578125 -2.796875q-1.25 -1.453125 -1.25 -3.609375q0 -2.703125 1.953125 -4.453125q1.953125 -1.765625 5.171875 -1.765625q3.390625 0 5.421875 1.75q2.046875 1.75 2.046875 4.703125l-5.390625 0q0 -2.515625 -2.09375 -2.515625q-0.859375 0 -1.421875 0.53125q-0.546875 0.53125 -0.546875 1.484375q0 0.6875 0.609375 1.21875q0.609375 0.515625 2.875 1.484375q3.296875 1.21875 4.65625 2.71875q1.359375 1.5 1.359375 3.875q0 2.765625 -2.078125 4.4375q-2.0625 1.671875 -5.4375 1.671875q-2.265625 0 -4.0 -0.875q-1.734375 -0.890625 -2.71875 -2.46875q-0.96875 -1.578125 -0.96875 -3.40625l5.125 0q0.03125 1.40625 0.640625 2.109375q0.625 0.703125 2.03125 0.703125q2.171875 0 2.171875 -1.953125zm15.881989 1.421875q2.34375 0 2.375 -3.046875l5.078125 0q-0.046875 3.375 -2.09375 5.453125q-2.03125 2.0625 -5.25 2.0625q-3.96875 0 -6.0625 -2.46875q-2.09375 -2.484375 -2.140625 -7.296875l0 -1.640625q0 -4.84375 2.0625 -7.390625q2.078125 -2.5625 6.109375 -2.5625q3.40625 0 5.359375 2.109375q1.96875 2.09375 2.015625 5.96875l-5.078125 0q-0.015625 -1.734375 -0.5625 -2.671875q-0.546875 -0.9375 -1.828125 -0.9375q-1.40625 0 -2.015625 1.0q-0.609375 1.0 -0.65625 3.875l0 2.09375q0 2.515625 0.25 3.515625q0.25 1.0 0.8125 1.46875q0.578125 0.46875 1.625 0.46875zm15.592865 -14.703125q1.75 -2.1875 4.296875 -2.1875q2.828125 0 4.28125 1.984375q1.46875 1.96875 1.5 5.890625l0 13.109375l-5.40625 0l0 -13.046875q0 -1.8125 -0.5625 -2.609375q-0.5625 -0.8125 -1.828125 -0.8125q-1.46875 0 -2.28125 1.34375l0 15.125l-5.390625 0l0 -29.25l5.390625 0l0 10.453125zm13.135498 7.828125q0 -4.6875 2.203125 -7.34375q2.21875 -2.671875 6.125 -2.671875q3.9375 0 6.140625 2.671875q2.21875 2.65625 2.21875 7.375l0 1.328125q0 4.703125 -2.1875 7.34375q-2.1875 2.640625 -6.140625 2.640625q-3.953125 0 -6.15625 -2.65625q-2.203125 -2.65625 -2.203125 -7.375l0 -1.3125zm5.40625 1.359375q0 5.515625 2.953125 5.515625q2.734375 0 2.9375 -4.609375l0.015625 -2.265625q0 -2.8125 -0.78125 -4.171875q-0.78125 -1.375 -2.203125 -1.375q-1.375 0 -2.15625 1.375q-0.765625 1.359375 -0.765625 4.171875l0 1.359375zm13.827484 -1.359375q0 -4.6875 2.203125 -7.34375q2.21875 -2.671875 6.125 -2.671875q3.9375 0 6.140625 2.671875q2.21875 2.65625 2.21875 7.375l0 1.328125q0 4.703125 -2.1875 7.34375q-2.1875 2.640625 -6.140625 2.640625q-3.953125 0 -6.15625 -2.65625q-2.203125 -2.65625 -2.203125 -7.375l0 -1.3125zm5.40625 1.359375q0 5.515625 2.953125 5.515625q2.734375 0 2.9375 -4.609375l0.015625 -2.265625q0 -2.8125 -0.78125 -4.171875q-0.78125 -1.375 -2.203125 -1.375q-1.375 0 -2.15625 1.375q-0.765625 1.359375 -0.765625 4.171875l0 1.359375zm20.12439 9.609375l-5.421875 0l0 -29.25l5.421875 0l0 29.25z" fill-rule="nonzero"></path><path fill="#cc0000" d="m76.849 207.61247q0 -0.6875 -0.65625 -1.265625q-0.65625 -0.59375 -2.921875 -1.578125q-3.328125 -1.359375 -4.578125 -2.796875q-1.25 -1.453125 -1.25 -3.609375q0 -2.703125 1.953125 -4.453125q1.953125 -1.765625 5.171875 -1.765625q3.390625 0 5.421875 1.75q2.046875 1.75 2.046875 4.703125l-5.390625 0q0 -2.515625 -2.09375 -2.515625q-0.859375 0 -1.421875 0.53125q-0.546875 0.53125 -0.546875 1.484375q0 0.6875 0.609375 1.21875q0.609375 0.515625 2.875 1.484375q3.296875 1.21875 4.65625 2.71875q1.359375 1.5 1.359375 3.875q0 2.765625 -2.078125 4.4375q-2.0625 1.671875 -5.4375 1.671875q-2.265625 0 -4.0 -0.875q-1.734375 -0.890625 -2.71875 -2.46875q-0.96875 -1.578125 -0.96875 -3.40625l5.125 0q0.03125 1.40625 0.640625 2.109375q0.625 0.703125 2.03125 0.703125q2.171875 0 2.171875 -1.953125zm14.710114 -20.15625l0 5.0625l2.75 0l0 4.0625l-2.75 0l0 10.21875q0 1.21875 0.328125 1.6875q0.328125 0.453125 1.28125 0.453125q0.78125 0 1.28125 -0.140625l-0.046875 4.1875q-1.359375 0.515625 -2.96875 0.515625q-5.21875 0 -5.265625 -5.96875l0 -10.953125l-2.390625 0l0 -4.0625l2.390625 0l0 -5.0625l5.390625 0zm15.731827 23.78125q-1.671875 2.265625 -4.5 2.265625q-2.828125 0 -4.296875 -1.9375q-1.46875 -1.953125 -1.46875 -5.6875l0 -13.359375l5.390625 0l0 13.484375q0.03125 3.015625 2.0 3.015625q1.84375 0 2.671875 -1.609375l0 -14.890625l5.421875 0l0 20.609375l-5.0625 0l-0.15625 -1.890625zm8.166748 -9.046875q0 -5.0625 1.71875 -7.546875q1.71875 -2.5 4.984375 -2.5q2.390625 0 3.96875 2.0625l0 -10.328125l5.421875 0l0 29.25l-4.890625 0l-0.25 -2.09375q-1.65625 2.46875 -4.265625 2.46875q-3.234375 0 -4.9375 -2.46875q-1.703125 -2.484375 -1.75 -7.28125l0 -1.5625zm5.40625 1.359375q0 3.046875 0.640625 4.265625q0.65625 1.203125 2.203125 1.203125q1.59375 0 2.421875 -1.4375l0 -9.40625q-0.796875 -1.515625 -2.40625 -1.515625q-1.484375 0 -2.171875 1.203125q-0.6875 1.1875 -0.6875 4.265625l0 1.421875zm22.798874 9.953125q-4.15625 0 -6.484375 -2.46875q-2.3125 -2.484375 -2.3125 -7.078125l0 -1.640625q0 -4.875 2.125 -7.515625q2.140625 -2.65625 6.125 -2.65625q3.875 0 5.828125 2.484375q1.96875 2.484375 2.015625 7.359375l0 2.640625l-10.71875 0q0.109375 2.296875 1.0 3.359375q0.90625 1.046875 2.765625 1.046875q2.703125 0 4.515625 -1.84375l2.109375 3.25q-0.984375 1.375 -2.875 2.21875q-1.875 0.84375 -4.09375 0.84375zm-3.390625 -12.640625l5.390625 0l0 -0.5q-0.03125 -1.84375 -0.609375 -2.796875q-0.5625 -0.953125 -1.984375 -0.953125q-1.40625 0 -2.046875 1.015625q-0.625 1.015625 -0.75 3.234375zm18.49762 -8.34375l0.15625 2.046875q1.828125 -2.421875 4.78125 -2.421875q5.3125 0 5.46875 7.4375l0 13.546875l-5.40625 0l0 -13.140625q0 -1.75 -0.53125 -2.53125q-0.53125 -0.796875 -1.84375 -0.796875q-1.453125 0 -2.28125 1.5l0 14.96875l-5.40625 0l0 -20.609375l5.0625 0zm20.369873 -5.0625l0 5.0625l2.75 0l0 4.0625l-2.75 0l0 10.21875q0 1.21875 0.328125 1.6875q0.328125 0.453125 1.28125 0.453125q0.78125 0 1.28125 -0.140625l-0.046875 4.1875q-1.359375 0.515625 -2.96875 0.515625q-5.21875 0 -5.265625 -5.96875l0 -10.953125l-2.390625 0l0 -4.0625l2.390625 0l0 -5.0625l5.390625 0zm14.716202 20.15625q0 -0.6875 -0.65625 -1.265625q-0.65625 -0.59375 -2.921875 -1.578125q-3.328125 -1.359375 -4.578125 -2.796875q-1.25 -1.453125 -1.25 -3.609375q0 -2.703125 1.953125 -4.453125q1.953125 -1.765625 5.171875 -1.765625q3.390625 0 5.421875 1.75q2.046875 1.75 2.046875 4.703125l-5.390625 0q0 -2.515625 -2.09375 -2.515625q-0.859375 0 -1.421875 0.53125q-0.546875 0.53125 -0.546875 1.484375q0 0.6875 0.609375 1.21875q0.609375 0.515625 2.875 1.484375q3.296875 1.21875 4.65625 2.71875q1.359375 1.5 1.359375 3.875q0 2.765625 -2.078125 4.4375q-2.0625 1.671875 -5.4375 1.671875q-2.265625 0 -4.0 -0.875q-1.734375 -0.890625 -2.71875 -2.46875q-0.96875 -1.578125 -0.96875 -3.40625l5.125 0q0.03125 1.40625 0.640625 2.109375q0.625 0.703125 2.03125 0.703125q2.171875 0 2.171875 -1.953125zm23.619171 -20.15625l0 5.0625l2.75 0l0 4.0625l-2.75 0l0 10.21875q0 1.21875 0.328125 1.6875q0.328125 0.453125 1.28125 0.453125q0.78125 0 1.28125 -0.140625l-0.046875 4.1875q-1.359375 0.515625 -2.96875 0.515625q-5.21875 0 -5.265625 -5.96875l0 -10.953125l-2.390625 0l0 -4.0625l2.390625 0l0 -5.0625l5.390625 0zm4.966202 14.703125q0 -4.6875 2.203125 -7.34375q2.21875 -2.671875 6.125 -2.671875q3.9375 0 6.140625 2.671875q2.21875 2.65625 2.21875 7.375l0 1.328125q0 4.703125 -2.1875 7.34375q-2.1875 2.640625 -6.140625 2.640625q-3.953125 0 -6.15625 -2.65625q-2.203125 -2.65625 -2.203125 -7.375l0 -1.3125zm5.40625 1.359375q0 5.515625 2.953125 5.515625q2.734375 0 2.9375 -4.609375l0.015625 -2.265625q0 -2.8125 -0.78125 -4.171875q-0.78125 -1.375 -2.203125 -1.375q-1.375 0 -2.15625 1.375q-0.765625 1.359375 -0.765625 4.171875l0 1.359375zm41.3956 4.09375q0 -0.6875 -0.65625 -1.265625q-0.65625 -0.59375 -2.921875 -1.578125q-3.328125 -1.359375 -4.578125 -2.796875q-1.25 -1.453125 -1.25 -3.609375q0 -2.703125 1.953125 -4.453125q1.953125 -1.765625 5.171875 -1.765625q3.390625 0 5.421875 1.75q2.046875 1.75 2.046875 4.703125l-5.390625 0q0 -2.515625 -2.09375 -2.515625q-0.859375 0 -1.421875 0.53125q-0.546875 0.53125 -0.546875 1.484375q0 0.6875 0.609375 1.21875q0.609375 0.515625 2.875 1.484375q3.296875 1.21875 4.65625 2.71875q1.359375 1.5 1.359375 3.875q0 2.765625 -2.078125 4.4375q-2.0625 1.671875 -5.4375 1.671875q-2.265625 0 -4.0 -0.875q-1.734375 -0.890625 -2.71875 -2.46875q-0.96875 -1.578125 -0.96875 -3.40625l5.125 0q0.03125 1.40625 0.640625 2.109375q0.625 0.703125 2.03125 0.703125q2.171875 0 2.171875 -1.953125zm14.710114 -20.15625l0 5.0625l2.75 0l0 4.0625l-2.75 0l0 10.21875q0 1.21875 0.328125 1.6875q0.328125 0.453125 1.28125 0.453125q0.78125 0 1.28125 -0.140625l-0.046875 4.1875q-1.359375 0.515625 -2.96875 0.515625q-5.21875 0 -5.265625 -5.96875l0 -10.953125l-2.390625 0l0 -4.0625l2.390625 0l0 -5.0625l5.390625 0zm13.919342 26.046875q-4.15625 0 -6.484375 -2.46875q-2.3125 -2.484375 -2.3125 -7.078125l0 -1.640625q0 -4.875 2.125 -7.515625q2.140625 -2.65625 6.125 -2.65625q3.875 0 5.828125 2.484375q1.96875 2.484375 2.015625 7.359375l0 2.640625l-10.71875 0q0.109375 2.296875 1.0 3.359375q0.90625 1.046875 2.765625 1.046875q2.703125 0 4.515625 -1.84375l2.109375 3.25q-0.984375 1.375 -2.875 2.21875q-1.875 0.84375 -4.09375 0.84375zm-3.390625 -12.640625l5.390625 0l0 -0.5q-0.03125 -1.84375 -0.609375 -2.796875q-0.5625 -0.953125 -1.984375 -0.953125q-1.40625 0 -2.046875 1.015625q-0.625 1.015625 -0.75 3.234375zm29.62262 2.609375q0 4.859375 -1.671875 7.453125q-1.65625 2.578125 -4.953125 2.578125q-2.515625 0 -4.046875 -2.03125l0 9.578125l-5.375 0l0 -28.53125l4.984375 0l0.1875 1.890625q1.546875 -2.265625 4.203125 -2.265625q3.296875 0 4.96875 2.40625q1.671875 2.390625 1.703125 7.34375l0 1.578125zm-5.375 -1.34375q0 -3.0 -0.65625 -4.234375q-0.65625 -1.234375 -2.21875 -1.234375q-1.65625 0 -2.421875 1.390625l0 9.65625q0.734375 1.328125 2.46875 1.328125q1.59375 0 2.203125 -1.34375q0.625 -1.359375 0.625 -4.21875l0 -1.34375zm18.610931 11.0l0 -16.546875l-2.5 0l0 -4.0625l2.5 0l0 -1.84375q0.015625 -3.40625 1.796875 -5.296875q1.78125 -1.90625 4.921875 -1.90625q0.953125 0 2.4375 0.390625l-0.03125 4.296875q-0.5625 -0.171875 -1.328125 -0.171875q-2.390625 0 -2.390625 2.859375l0 1.671875l3.21875 0l0 4.0625l-3.21875 0l0 16.546875l-5.40625 0zm10.790192 -10.96875q0 -4.6875 2.203125 -7.34375q2.21875 -2.671875 6.125 -2.671875q3.9375 0 6.140625 2.671875q2.21875 2.65625 2.21875 7.375l0 1.328125q0 4.703125 -2.1875 7.34375q-2.1875 2.640625 -6.140625 2.640625q-3.953125 0 -6.15625 -2.65625q-2.203125 -2.65625 -2.203125 -7.375l0 -1.3125zm5.40625 1.359375q0 5.515625 2.953125 5.515625q2.734375 0 2.9375 -4.609375l0.015625 -2.265625q0 -2.8125 -0.78125 -4.171875q-0.78125 -1.375 -2.203125 -1.375q-1.375 0 -2.15625 1.375q-0.765625 1.359375 -0.765625 4.171875l0 1.359375zm24.62439 -5.796875l-1.78125 -0.15625q-2.21875 0 -3.0 1.953125l0 13.609375l-5.40625 0l0 -20.609375l5.09375 0l0.140625 2.234375q1.28125 -2.609375 3.53125 -2.609375q0.90625 0 1.484375 0.25l-0.0625 5.328125zm17.659973 6.359375l1.84375 -11.5625l5.15625 0l-4.265625 20.609375l-4.46875 0l-2.90625 -11.921875l-2.921875 11.921875l-4.5 0l-4.265625 -20.609375l5.1875 0l1.828125 11.578125l2.734375 -11.578125l3.828125 0l2.75 11.5625zm19.243408 9.046875q-0.234375 -0.46875 -0.453125 -1.59375q-1.453125 1.96875 -3.921875 1.96875q-2.59375 0 -4.296875 -1.703125q-1.703125 -1.71875 -1.703125 -4.4375q0 -3.234375 2.0625 -5.0q2.0625 -1.78125 5.953125 -1.828125l1.640625 0l0 -1.65625q0 -1.390625 -0.484375 -1.953125q-0.46875 -0.578125 -1.390625 -0.578125q-2.015625 0 -2.015625 2.359375l-5.390625 0q0 -2.84375 2.140625 -4.703125q2.140625 -1.859375 5.421875 -1.859375q3.390625 0 5.25 1.765625q1.859375 1.75 1.859375 5.03125l0 9.6875q0.03125 2.671875 0.75 4.171875l0 0.328125l-5.421875 0zm-3.1875 -3.84375q0.90625 0 1.53125 -0.359375q0.625 -0.375 0.9375 -0.859375l0 -4.28125l-1.296875 0q-1.375 0 -2.171875 0.875q-0.78125 0.875 -0.78125 2.34375q0 2.28125 1.78125 2.28125zm21.758118 -11.5625l-1.78125 -0.15625q-2.21875 0 -3.0 1.953125l0 13.609375l-5.40625 0l0 -20.609375l5.09375 0l0.140625 2.234375q1.28125 -2.609375 3.53125 -2.609375q0.90625 0 1.484375 0.25l-0.0625 5.328125zm1.9255981 4.46875q0 -5.0625 1.71875 -7.546875q1.71875 -2.5 4.984375 -2.5q2.390625 0 3.96875 2.0625l0 -10.328125l5.421875 0l0 29.25l-4.890625 0l-0.25 -2.09375q-1.65625 2.46875 -4.265625 2.46875q-3.234375 0 -4.9375 -2.46875q-1.703125 -2.484375 -1.75 -7.28125l0 -1.5625zm5.40625 1.359375q0 3.046875 0.640625 4.265625q0.65625 1.203125 2.203125 1.203125q1.59375 0 2.421875 -1.4375l0 -9.40625q-0.796875 -1.515625 -2.40625 -1.515625q-1.484375 0 -2.171875 1.203125q-0.6875 1.1875 -0.6875 4.265625l0 1.421875zm14.923889 6.828125q0 -1.28125 0.859375 -2.125q0.859375 -0.84375 2.25 -0.84375q1.359375 0 2.25 0.828125q0.90625 0.828125 0.90625 2.140625q0 1.34375 -0.90625 2.15625q-0.90625 0.796875 -2.25 0.796875q-1.34375 0 -2.234375 -0.8125q-0.875 -0.8125 -0.875 -2.140625zm11.249573 0q0 -1.28125 0.859375 -2.125q0.859375 -0.84375 2.25 -0.84375q1.359375 0 2.25 0.828125q0.90625 0.828125 0.90625 2.140625q0 1.34375 -0.90625 2.15625q-0.90625 0.796875 -2.25 0.796875q-1.34375 0 -2.234375 -0.8125q-0.875 -0.8125 -0.875 -2.140625zm11.249573 0q0 -1.28125 0.859375 -2.125q0.859375 -0.84375 2.25 -0.84375q1.359375 0 2.25 0.828125q0.90625 0.828125 0.90625 2.140625q0 1.34375 -0.90625 2.15625q-0.90625 0.796875 -2.25 0.796875q-1.34375 0 -2.234375 -0.8125q-0.875 -0.8125 -0.875 -2.140625zm12.593323 -16.46875l-2.46875 -1.5q1.34375 -2.6875 1.40625 -5.21875l0 -3.3125l4.21875 0l0 3.015625q-0.015625 1.71875 -0.90625 3.734375q-0.875 2.015625 -2.25 3.28125zm6.0 0l-2.46875 -1.5q1.34375 -2.6875 1.40625 -5.21875l0 -3.3125l4.21875 0l0 3.015625q-0.015625 1.71875 -0.90625 3.734375q-0.875 2.015625 -2.25 3.28125z" fill-rule="nonzero"></path><path fill="#cc0000" d="m273.81213 265.3681l0 -11.375l3.515625 0q1.78125 0 2.703125 0.796875q0.921875 0.78125 0.921875 2.3125q0 0.875 -0.390625 1.5q-0.375 0.625 -1.03125 0.90625q0.765625 0.21875 1.171875 0.890625q0.421875 0.65625 0.421875 1.625q0 1.65625 -0.921875 2.5q-0.90625 0.84375 -2.625 0.84375l-3.765625 0zm2.296875 -4.953125l0 3.046875l1.46875 0q0.609375 0 0.921875 -0.375q0.328125 -0.390625 0.328125 -1.09375q0 -1.53125 -1.109375 -1.578125l-1.609375 0zm0 -1.671875l1.1875 0q1.359375 0 1.359375 -1.390625q0 -0.78125 -0.3125 -1.109375q-0.3125 -0.34375 -1.015625 -0.34375l-1.21875 0l0 2.84375zm8.8828125 6.625l-2.21875 0l0 -8.453125l2.21875 0l0 8.453125zm-2.3125 -10.640625q0 -0.515625 0.328125 -0.84375q0.328125 -0.328125 0.875 -0.328125q0.546875 0 0.875 0.328125q0.328125 0.328125 0.328125 0.84375q0 0.5 -0.328125 0.84375q-0.328125 0.328125 -0.890625 0.328125q-0.546875 0 -0.875 -0.328125q-0.3125 -0.34375 -0.3125 -0.84375zm6.34375 10.640625l-2.21875 0l0 -12.0l2.21875 0l0 12.0zm4.03125 0l-2.21875 0l0 -12.0l2.21875 0l0 12.0zm5.515625 0l0 -11.375l3.515625 0q1.78125 0 2.703125 0.796875q0.921875 0.78125 0.921875 2.3125q0 0.875 -0.390625 1.5q-0.375 0.625 -1.03125 0.90625q0.765625 0.21875 1.171875 0.890625q0.421875 0.65625 0.421875 1.625q0 1.65625 -0.921875 2.5q-0.90625 0.84375 -2.625 0.84375l-3.765625 0zm2.296875 -4.953125l0 3.046875l1.46875 0q0.609375 0 0.921875 -0.375q0.328125 -0.390625 0.328125 -1.09375q0 -1.53125 -1.109375 -1.578125l-1.609375 0zm0 -1.671875l1.1875 0q1.359375 0 1.359375 -1.390625q0 -0.78125 -0.3125 -1.109375q-0.3125 -0.34375 -1.015625 -0.34375l-1.21875 0l0 2.84375zm8.8828125 6.625l-2.21875 0l0 -8.453125l2.21875 0l0 8.453125zm-2.3125 -10.640625q0 -0.515625 0.328125 -0.84375q0.328125 -0.328125 0.875 -0.328125q0.546875 0 0.875 0.328125q0.328125 0.328125 0.328125 0.84375q0 0.5 -0.328125 0.84375q-0.328125 0.328125 -0.890625 0.328125q-0.546875 0 -0.875 -0.328125q-0.3125 -0.34375 -0.3125 -0.84375zm3.765625 6.15625q0 -2.078125 0.75 -3.09375q0.75 -1.03125 2.09375 -1.03125q1.15625 0 1.78125 0.90625l0.078125 -0.75l2.0 0l0 8.453125q0 1.625 -0.90625 2.46875q-0.90625 0.859375 -2.609375 0.859375q-0.6875 0 -1.453125 -0.28125q-0.765625 -0.265625 -1.140625 -0.703125l0.734375 -1.53125q0.3125 0.328125 0.8125 0.53125q0.5 0.21875 0.953125 0.21875q0.734375 0 1.0625 -0.359375q0.328125 -0.359375 0.328125 -1.140625l0 -0.734375q-0.625 0.828125 -1.640625 0.828125q-1.359375 0 -2.09375 -1.046875q-0.734375 -1.0625 -0.75 -2.96875l0 -0.625zm2.203125 0.546875q0 1.171875 0.296875 1.71875q0.3125 0.53125 0.984375 0.53125q0.671875 0 1.0 -0.5l0 -4.03125q-0.34375 -0.546875 -0.984375 -0.546875q-0.65625 0 -0.984375 0.546875q-0.3125 0.53125 -0.3125 1.734375l0 0.546875zm9.515625 4.09375q-1.703125 0 -2.65625 -1.015625q-0.953125 -1.015625 -0.953125 -2.90625l0 -0.671875q0 -2.0 0.875 -3.078125q0.875 -1.09375 2.515625 -1.09375q1.59375 0 2.390625 1.015625q0.8125 1.015625 0.828125 3.015625l0 1.09375l-4.40625 0q0.046875 0.9375 0.40625 1.375q0.375 0.421875 1.140625 0.421875q1.109375 0 1.859375 -0.75l0.859375 1.328125q-0.40625 0.5625 -1.1875 0.921875q-0.765625 0.34375 -1.671875 0.34375zm-1.390625 -5.1875l2.21875 0l0 -0.203125q-0.015625 -0.765625 -0.25 -1.15625q-0.234375 -0.390625 -0.8125 -0.390625q-0.578125 0 -0.84375 0.421875q-0.265625 0.40625 -0.3125 1.328125zm7.953125 5.03125l-2.21875 0l0 -12.0l2.21875 0l0 12.0zm1.453125 -4.5q0 -1.921875 0.90625 -3.015625q0.90625 -1.09375 2.515625 -1.09375q1.609375 0 2.515625 1.09375q0.90625 1.09375 0.90625 3.03125l0 0.53125q0 1.9375 -0.90625 3.03125q-0.890625 1.078125 -2.5 1.078125q-1.625 0 -2.53125 -1.09375q-0.90625 -1.09375 -0.90625 -3.03125l0 -0.53125zm2.21875 0.546875q0 2.265625 1.21875 2.265625q1.109375 0 1.203125 -1.890625l0 -0.921875q0 -1.15625 -0.328125 -1.71875q-0.3125 -0.5625 -0.890625 -0.5625q-0.5625 0 -0.890625 0.5625q-0.3125 0.5625 -0.3125 1.71875l0 0.546875zm12.1640625 0.234375l0.75 -4.734375l2.125 0l-1.75 8.453125l-1.84375 0l-1.1875 -4.890625l-1.203125 4.890625l-1.84375 0l-1.75 -8.453125l2.125 0l0.75 4.75l1.125 -4.75l1.578125 0l1.125 4.734375zm4.625 6.59375l-1.1875 -0.625l0.296875 -0.546875q0.5 -0.921875 0.515625 -1.875l0 -1.75l1.921875 0l0 1.5625q-0.015625 0.84375 -0.4375 1.734375q-0.40625 0.890625 -1.109375 1.5zm14.7734375 -6.671875q-0.078125 1.953125 -1.09375 2.953125q-1.0 1.0 -2.84375 1.0q-1.921875 0 -2.953125 -1.265625q-1.03125 -1.28125 -1.03125 -3.625l0 -1.921875q0 -2.34375 1.0625 -3.609375q1.0625 -1.265625 2.953125 -1.265625q1.859375 0 2.828125 1.046875q0.96875 1.03125 1.09375 2.96875l-2.296875 0q-0.03125 -1.203125 -0.375 -1.65625q-0.34375 -0.453125 -1.25 -0.453125q-0.921875 0 -1.3125 0.640625q-0.375 0.640625 -0.390625 2.125l0 2.140625q0 1.703125 0.375 2.34375q0.375 0.625 1.296875 0.625q0.90625 0 1.25 -0.4375q0.34375 -0.453125 0.390625 -1.609375l2.296875 0zm5.46875 3.015625q-0.6875 0.9375 -1.84375 0.9375q-1.171875 0 -1.78125 -0.796875q-0.59375 -0.8125 -0.59375 -2.34375l0 -5.46875l2.21875 0l0 5.53125q0.015625 1.234375 0.8125 1.234375q0.765625 0 1.09375 -0.65625l0 -6.109375l2.234375 0l0 8.453125l-2.078125 0l-0.0625 -0.78125zm7.890625 -5.546875l-0.734375 -0.0625q-0.90625 0 -1.234375 0.796875l0 5.59375l-2.21875 0l0 -8.453125l2.09375 0l0.0625 0.90625q0.515625 -1.0625 1.4375 -1.0625q0.375 0 0.609375 0.09375l-0.015625 2.1875zm5.3046875 0l-0.734375 -0.0625q-0.90625 0 -1.234375 0.796875l0 5.59375l-2.21875 0l0 -8.453125l2.09375 0l0.0625 0.90625q0.515625 -1.0625 1.4375 -1.0625q0.375 0 0.609375 0.09375l-0.015625 2.1875zm3.4453125 6.328125l-2.21875 0l0 -8.453125l2.21875 0l0 8.453125zm-2.3125 -10.640625q0 -0.515625 0.328125 -0.84375q0.328125 -0.328125 0.875 -0.328125q0.546875 0 0.875 0.328125q0.328125 0.328125 0.328125 0.84375q0 0.5 -0.328125 0.84375q-0.328125 0.328125 -0.890625 0.328125q-0.546875 0 -0.875 -0.328125q-0.3125 -0.34375 -0.3125 -0.84375zm7.078125 8.953125q0.96875 0 0.984375 -1.25l2.078125 0q-0.015625 1.390625 -0.859375 2.25q-0.828125 0.84375 -2.15625 0.84375q-1.625 0 -2.484375 -1.015625q-0.859375 -1.015625 -0.875 -3.0l0 -0.671875q0 -1.984375 0.84375 -3.03125q0.84375 -1.046875 2.5 -1.046875q1.40625 0 2.203125 0.859375q0.8125 0.859375 0.828125 2.453125l-2.078125 0q-0.015625 -0.71875 -0.25 -1.09375q-0.21875 -0.390625 -0.734375 -0.390625q-0.578125 0 -0.828125 0.421875q-0.25 0.40625 -0.265625 1.578125l0 0.859375q0 1.03125 0.09375 1.453125q0.109375 0.40625 0.34375 0.59375q0.234375 0.1875 0.65625 0.1875zm8.46875 0.90625q-0.6875 0.9375 -1.84375 0.9375q-1.171875 0 -1.78125 -0.796875q-0.59375 -0.8125 -0.59375 -2.34375l0 -5.46875l2.21875 0l0 5.53125q0.015625 1.234375 0.8125 1.234375q0.765625 0 1.09375 -0.65625l0 -6.109375l2.234375 0l0 8.453125l-2.078125 0l-0.0625 -0.78125zm6.03125 0.78125l-2.21875 0l0 -12.0l2.21875 0l0 12.0zm5.875 -0.78125q-0.6875 0.9375 -1.84375 0.9375q-1.171875 0 -1.78125 -0.796875q-0.59375 -0.8125 -0.59375 -2.34375l0 -5.46875l2.21875 0l0 5.53125q0.015625 1.234375 0.8125 1.234375q0.765625 0 1.09375 -0.65625l0 -6.109375l2.234375 0l0 8.453125l-2.078125 0l-0.0625 -0.78125zm5.796875 -7.671875l0.0625 0.78125q0.734375 -0.9375 1.953125 -0.9375q1.265625 0 1.796875 1.140625q0.71875 -1.140625 2.0625 -1.140625q2.21875 0 2.28125 3.0625l0 5.546875l-2.21875 0l0 -5.40625q0 -0.734375 -0.203125 -1.046875q-0.203125 -0.3125 -0.6875 -0.3125q-0.609375 0 -0.921875 0.765625l0.015625 0.265625l0 5.734375l-2.203125 0l0 -5.390625q0 -0.71875 -0.203125 -1.046875q-0.1875 -0.328125 -0.6875 -0.328125q-0.578125 0 -0.90625 0.625l0 6.140625l-2.21875 0l0 -8.453125l2.078125 0zm19.460938 3.53125l-3.578125 0l0 3.015625l4.234375 0l0 1.90625l-6.53125 0l0 -11.375l6.515625 0l0 1.90625l-4.21875 0l0 2.6875l3.578125 0l0 1.859375zm1.5703125 0.4375q0 -2.078125 0.703125 -3.09375q0.703125 -1.03125 2.046875 -1.03125q0.96875 0 1.625 0.84375l0 -4.234375l2.21875 0l0 12.0l-2.0 0l-0.109375 -0.859375q-0.671875 1.015625 -1.75 1.015625q-1.328125 0 -2.03125 -1.015625q-0.6875 -1.015625 -0.703125 -2.984375l0 -0.640625zm2.21875 0.546875q0 1.25 0.265625 1.75q0.265625 0.5 0.890625 0.5q0.65625 0 1.0 -0.59375l0 -3.859375q-0.328125 -0.625 -0.984375 -0.625q-0.609375 0 -0.890625 0.5q-0.28125 0.484375 -0.28125 1.75l0 0.578125zm8.3203125 3.9375l-2.21875 0l0 -8.453125l2.21875 0l0 8.453125zm-2.3125 -10.640625q0 -0.515625 0.328125 -0.84375q0.328125 -0.328125 0.875 -0.328125q0.546875 0 0.875 0.328125q0.328125 0.328125 0.328125 0.84375q0 0.5 -0.328125 0.84375q-0.328125 0.328125 -0.890625 0.328125q-0.546875 0 -0.875 -0.328125q-0.3125 -0.34375 -0.3125 -0.84375zm6.59375 0.109375l0 2.078125l1.140625 0l0 1.65625l-1.140625 0l0 4.203125q0 0.5 0.140625 0.6875q0.140625 0.1875 0.53125 0.1875q0.3125 0 0.515625 -0.0625l-0.015625 1.71875q-0.5625 0.21875 -1.21875 0.21875q-2.140625 0 -2.15625 -2.453125l0 -4.5l-0.984375 0l0 -1.65625l0.984375 0l0 -2.078125l2.203125 0zm2.0859375 6.03125q0 -1.921875 0.90625 -3.015625q0.90625 -1.09375 2.515625 -1.09375q1.609375 0 2.515625 1.09375q0.90625 1.09375 0.90625 3.03125l0 0.53125q0 1.9375 -0.90625 3.03125q-0.890625 1.078125 -2.5 1.078125q-1.625 0 -2.53125 -1.09375q-0.90625 -1.09375 -0.90625 -3.03125l0 -0.53125zm2.21875 0.546875q0 2.265625 1.21875 2.265625q1.109375 0 1.203125 -1.890625l0 -0.921875q0 -1.15625 -0.328125 -1.71875q-0.3125 -0.5625 -0.890625 -0.5625q-0.5625 0 -0.890625 0.5625q-0.3125 0.5625 -0.3125 1.71875l0 0.546875zm10.1796875 -2.375l-0.734375 -0.0625q-0.90625 0 -1.234375 0.796875l0 5.59375l-2.21875 0l0 -8.453125l2.09375 0l0.0625 0.90625q0.515625 -1.0625 1.4375 -1.0625q0.375 0 0.609375 0.09375l-0.015625 2.1875zm1.7890625 9.203125l-1.1875 -0.625l0.296875 -0.546875q0.5 -0.921875 0.515625 -1.875l0 -1.75l1.921875 0l0 1.5625q-0.015625 0.84375 -0.4375 1.734375q-0.40625 0.890625 -1.109375 1.5z" fill-rule="nonzero"></path><path fill="#cc0000" d="m275.1715 280.21185l-1.140625 0l-0.71875 4.15625l-2.25 0l1.96875 -11.375l3.4375 0q1.53125 0.046875 2.34375 0.9375q0.8125 0.890625 0.6875 2.4375q-0.203125 2.328125 -2.125 3.25l1.140625 4.625l0 0.125l-2.40625 0l-0.9375 -4.15625zm-0.8125 -1.921875l1.171875 0.015625q0.8125 -0.015625 1.28125 -0.640625q0.46875 -0.625 0.46875 -1.671875q-0.03125 -1.015625 -0.90625 -1.078125l-1.421875 -0.015625l-0.59375 3.390625zm8.75 6.234375q-1.03125 0 -1.75 -0.5q-0.703125 -0.5 -1.03125 -1.375q-0.3125 -0.890625 -0.1875 -2.03125l0.078125 -0.578125q0.25 -2.09375 1.265625 -3.203125q1.03125 -1.125 2.609375 -1.078125q1.15625 0.03125 1.8125 0.71875q0.65625 0.6875 0.765625 1.9375q0.0625 0.734375 -0.03125 1.453125l-0.140625 1.015625l-4.21875 0q-0.046875 0.328125 -0.03125 0.640625q0.0625 1.125 1.109375 1.15625q0.96875 0.03125 1.890625 -0.75l0.71875 1.34375q-0.421875 0.59375 -1.203125 0.9375q-0.765625 0.328125 -1.65625 0.3125zm0.765625 -6.953125q-0.921875 -0.03125 -1.296875 1.1875l-0.15625 0.578125l2.15625 0q0.078125 -0.453125 0.078125 -0.734375q0.03125 -0.984375 -0.78125 -1.03125zm7.5859375 -3.734375l-0.359375 2.078125l1.09375 0l-0.28125 1.65625l-1.09375 0l-0.71875 4.265625l-0.03125 0.25q-0.03125 0.515625 0.4375 0.53125q0.140625 0.015625 0.53125 -0.03125l-0.1875 1.734375q-0.484375 0.203125 -1.125 0.203125q-0.953125 -0.015625 -1.4375 -0.6875q-0.46875 -0.671875 -0.359375 -1.8125l0.734375 -4.453125l-0.953125 0l0.28125 -1.65625l0.953125 0l0.359375 -2.078125l2.15625 0zm3.875 2.828125q0.796875 -0.9375 1.765625 -0.921875q0.9375 0.015625 1.421875 0.6875q0.5 0.671875 0.5 1.875l-0.046875 0.734375l-0.890625 5.328125l-2.15625 0l0.875 -5.34375l0.046875 -0.46875q0.03125 -0.953125 -0.6875 -0.953125q-0.515625 -0.015625 -1.0 0.546875l-1.078125 6.21875l-2.171875 0l2.09375 -12.0l2.15625 0l-0.828125 4.296875zm6.625 7.703125l-2.171875 0l1.46875 -8.453125l2.171875 0l-1.46875 8.453125zm-0.421875 -10.609375q0 -0.53125 0.34375 -0.875q0.34375 -0.34375 0.828125 -0.34375q0.484375 -0.015625 0.828125 0.328125q0.34375 0.328125 0.34375 0.8125q0 0.546875 -0.34375 0.890625q-0.34375 0.34375 -0.828125 0.34375q-0.5 0.015625 -0.84375 -0.3125q-0.328125 -0.34375 -0.328125 -0.84375zm5.5703125 2.140625l-0.15625 0.859375q0.890625 -1.046875 1.984375 -1.015625q0.890625 0.015625 1.34375 0.671875q0.46875 0.65625 0.46875 1.859375l-0.046875 0.71875l-0.90625 5.375l-2.15625 0l0.890625 -5.390625l0.03125 -0.46875q0.03125 -0.90625 -0.6875 -0.90625q-0.328125 0 -0.5625 0.1875q-0.234375 0.171875 -0.4375 0.421875l-1.078125 6.15625l-2.171875 0l1.46875 -8.453125l2.015625 -0.015625zm7.640625 5.234375l-0.75 0.71875l-0.4375 2.515625l-2.171875 0l2.09375 -12.0l2.15625 0l-1.1875 6.5l0.34375 -0.421875l1.90625 -2.53125l2.703125 0l-3.078125 3.578125l1.71875 4.875l-2.375 0l-0.921875 -3.234375zm6.4296875 3.234375l-2.171875 0l1.46875 -8.453125l2.171875 0l-1.46875 8.453125zm-0.421875 -10.609375q0 -0.53125 0.34375 -0.875q0.34375 -0.34375 0.828125 -0.34375q0.484375 -0.015625 0.828125 0.328125q0.34375 0.328125 0.34375 0.8125q0 0.546875 -0.34375 0.890625q-0.34375 0.34375 -0.828125 0.34375q-0.5 0.015625 -0.84375 -0.3125q-0.328125 -0.34375 -0.328125 -0.84375zm5.5703125 2.140625l-0.15625 0.859375q0.890625 -1.046875 1.984375 -1.015625q0.890625 0.015625 1.34375 0.671875q0.46875 0.65625 0.46875 1.859375l-0.046875 0.71875l-0.90625 5.375l-2.15625 0l0.890625 -5.390625l0.03125 -0.46875q0.03125 -0.90625 -0.6875 -0.90625q-0.328125 0 -0.5625 0.1875q-0.234375 0.171875 -0.4375 0.421875l-1.078125 6.15625l-2.171875 0l1.46875 -8.453125l2.015625 -0.015625zm8.140625 -0.140625q1.125 0.03125 1.640625 0.921875l0.265625 -0.78125l1.96875 0.015625l-1.4375 8.453125q-0.21875 1.65625 -1.265625 2.515625q-1.03125 0.875 -2.59375 0.828125q-0.6875 -0.015625 -1.359375 -0.28125q-0.671875 -0.265625 -1.140625 -0.734375l0.890625 -1.515625q0.65625 0.734375 1.625 0.765625q1.40625 0.046875 1.71875 -1.546875l0.15625 -0.71875q-0.765625 0.859375 -1.671875 0.859375q-1.109375 -0.015625 -1.6875 -0.859375q-0.5625 -0.84375 -0.546875 -2.328125q0 -0.921875 0.1875 -1.96875q0.1875 -1.0625 0.53125 -1.78125q0.890625 -1.890625 2.71875 -1.84375zm-1.296875 5.5625q0 1.328125 0.84375 1.359375q0.578125 0.015625 1.078125 -0.484375l0.71875 -4.0625q-0.296875 -0.515625 -0.859375 -0.546875q-1.375 -0.0625 -1.65625 2.21875q-0.125 1.09375 -0.125 1.515625zm14.3359375 0q0.078125 -0.578125 -0.171875 -0.96875q-0.234375 -0.390625 -1.015625 -0.75q-0.78125 -0.375 -1.296875 -0.78125q-1.4375 -1.078125 -1.3125 -2.734375q0.0625 -0.953125 0.59375 -1.703125q0.53125 -0.75 1.40625 -1.15625q0.890625 -0.421875 1.890625 -0.390625q1.46875 0.03125 2.28125 1.015625q0.828125 0.96875 0.765625 2.5l-2.234375 0q0.09375 -1.609375 -1.015625 -1.625q-0.578125 -0.015625 -0.984375 0.375q-0.40625 0.375 -0.5 0.984375q-0.109375 0.921875 1.265625 1.578125q1.390625 0.640625 1.984375 1.453125q0.671875 0.890625 0.578125 2.1875q-0.125 1.484375 -1.1875 2.375q-1.046875 0.890625 -2.625 0.859375q-1.578125 -0.03125 -2.5 -1.078125q-0.921875 -1.0625 -0.84375 -2.6875l2.25 0q-0.0625 1.015625 0.25 1.453125q0.328125 0.421875 1.03125 0.421875q0.609375 0 0.953125 -0.375q0.359375 -0.375 0.4375 -0.953125zm6.4296875 1.375q0.890625 0.03125 1.09375 -1.25l2.03125 -0.015625q-0.140625 1.40625 -1.046875 2.28125q-0.90625 0.859375 -2.203125 0.828125q-1.1875 -0.03125 -1.890625 -0.703125q-0.6875 -0.6875 -0.828125 -1.90625q-0.109375 -0.984375 0.109375 -2.375q0.234375 -1.390625 0.859375 -2.3125q1.03125 -1.53125 2.921875 -1.484375q1.28125 0.03125 1.953125 0.921875q0.671875 0.890625 0.59375 2.390625l-2.03125 0l0.015625 -0.484375q-0.03125 -0.96875 -0.765625 -1.015625q-1.15625 -0.0625 -1.375 1.78125l-0.140625 1.421875q-0.09375 0.625 -0.0625 1.046875q0.046875 0.859375 0.765625 0.875zm7.265625 -6.03125q0.796875 -0.9375 1.765625 -0.921875q0.9375 0.015625 1.421875 0.6875q0.5 0.671875 0.5 1.875l-0.046875 0.734375l-0.890625 5.328125l-2.15625 0l0.875 -5.34375l0.046875 -0.46875q0.03125 -0.953125 -0.6875 -0.953125q-0.515625 -0.015625 -1.0 0.546875l-1.078125 6.21875l-2.171875 0l2.09375 -12.0l2.15625 0l-0.828125 4.296875zm8.8125 -0.90625q1.28125 0.03125 2.0 0.875q0.71875 0.828125 0.78125 2.234375l0 0.546875q-0.09375 2.453125 -1.171875 3.8125q-1.078125 1.34375 -2.796875 1.296875q-1.015625 -0.015625 -1.671875 -0.53125q-0.65625 -0.53125 -0.9375 -1.453125q-0.28125 -0.921875 -0.15625 -2.125l0.046875 -0.421875q0.21875 -1.984375 1.265625 -3.125q1.046875 -1.15625 2.640625 -1.109375zm-1.828125 5.546875q0 1.34375 0.828125 1.390625q1.125 0.0625 1.453125 -1.71875l0.09375 -0.5625q0.109375 -1.125 0.109375 -1.4375q0 -1.34375 -0.859375 -1.40625q-0.609375 -0.03125 -1.015625 0.578125q-0.390625 0.59375 -0.5 1.734375q-0.109375 1.140625 -0.109375 1.421875zm9.625 -5.546875q1.28125 0.03125 2.0 0.875q0.71875 0.828125 0.78125 2.234375l0 0.546875q-0.09375 2.453125 -1.171875 3.8125q-1.078125 1.34375 -2.796875 1.296875q-1.015625 -0.015625 -1.671875 -0.53125q-0.65625 -0.53125 -0.9375 -1.453125q-0.28125 -0.921875 -0.15625 -2.125l0.046875 -0.421875q0.21875 -1.984375 1.265625 -3.125q1.046875 -1.15625 2.640625 -1.109375zm-1.828125 5.546875q0 1.34375 0.828125 1.390625q1.125 0.0625 1.453125 -1.71875l0.09375 -0.5625q0.109375 -1.125 0.109375 -1.4375q0 -1.34375 -0.859375 -1.40625q-0.609375 -0.03125 -1.015625 0.578125q-0.390625 0.59375 -0.5 1.734375q-0.109375 1.140625 -0.109375 1.421875zm7.4375 3.0625l-2.171875 0l2.078125 -12.0l2.171875 0l-2.078125 12.0zm5.7890625 -2.328125q0.078125 -0.546875 -0.859375 -0.96875q-0.921875 -0.4375 -1.390625 -0.8125q-0.453125 -0.375 -0.671875 -0.828125q-0.21875 -0.46875 -0.1875 -1.0625q0.046875 -1.140625 0.9375 -1.890625q0.890625 -0.75 2.171875 -0.734375q1.265625 0.03125 1.984375 0.765625q0.734375 0.71875 0.71875 1.90625l-2.15625 0q0.03125 -0.5625 -0.140625 -0.78125q-0.171875 -0.234375 -0.53125 -0.234375q-0.375 0 -0.640625 0.25q-0.25 0.25 -0.3125 0.609375q-0.09375 0.515625 0.78125 0.921875q0.890625 0.390625 1.28125 0.65625q1.171875 0.765625 1.09375 2.109375q-0.046875 0.796875 -0.5 1.390625q-0.4375 0.578125 -1.171875 0.90625q-0.734375 0.3125 -1.59375 0.28125q-1.234375 -0.03125 -2.015625 -0.796875q-0.78125 -0.78125 -0.765625 -1.984375l2.046875 0q-0.015625 0.609375 0.203125 0.875q0.21875 0.265625 0.671875 0.265625q0.40625 0 0.6875 -0.203125q0.296875 -0.21875 0.359375 -0.640625z" fill-rule="nonzero"></path><path fill="#cc0000" d="m398.88245 275.91498l0.0625 0.78125q0.734375 -0.9375 1.953125 -0.9375q1.265625 0 1.796875 1.140625q0.71875 -1.140625 2.0625 -1.140625q2.21875 0 2.28125 3.0625l0 5.546875l-2.21875 0l0 -5.40625q0 -0.734375 -0.203125 -1.046875q-0.203125 -0.3125 -0.6875 -0.3125q-0.609375 0 -0.921875 0.765625l0.015625 0.265625l0 5.734375l-2.203125 0l0 -5.390625q0 -0.71875 -0.203125 -1.046875q-0.1875 -0.328125 -0.6875 -0.328125q-0.578125 0 -0.90625 0.625l0 6.140625l-2.21875 0l0 -8.453125l2.078125 0zm13.8046875 8.453125q-0.09375 -0.203125 -0.1875 -0.65625q-0.59375 0.8125 -1.609375 0.8125q-1.0625 0 -1.765625 -0.703125q-0.703125 -0.703125 -0.703125 -1.828125q0 -1.328125 0.84375 -2.046875q0.859375 -0.734375 2.453125 -0.75l0.671875 0l0 -0.671875q0 -0.578125 -0.203125 -0.8125q-0.1875 -0.234375 -0.5625 -0.234375q-0.828125 0 -0.828125 0.96875l-2.21875 0q0 -1.171875 0.875 -1.921875q0.890625 -0.765625 2.234375 -0.765625q1.390625 0 2.140625 0.71875q0.765625 0.71875 0.765625 2.0625l0 3.984375q0.015625 1.09375 0.3125 1.703125l0 0.140625l-2.21875 0zm-1.3125 -1.578125q0.375 0 0.625 -0.140625q0.265625 -0.15625 0.390625 -0.359375l0 -1.765625l-0.53125 0q-0.5625 0 -0.890625 0.359375q-0.328125 0.359375 -0.328125 0.96875q0 0.9375 0.734375 0.9375zm4.5625 -2.90625q0 -2.078125 0.75 -3.09375q0.75 -1.03125 2.09375 -1.03125q1.15625 0 1.78125 0.90625l0.078125 -0.75l2.0 0l0 8.453125q0 1.625 -0.90625 2.46875q-0.90625 0.859375 -2.609375 0.859375q-0.6875 0 -1.453125 -0.28125q-0.765625 -0.265625 -1.140625 -0.703125l0.734375 -1.53125q0.3125 0.328125 0.8125 0.53125q0.5 0.21875 0.953125 0.21875q0.734375 0 1.0625 -0.359375q0.328125 -0.359375 0.328125 -1.140625l0 -0.734375q-0.625 0.828125 -1.640625 0.828125q-1.359375 0 -2.09375 -1.046875q-0.734375 -1.0625 -0.75 -2.96875l0 -0.625zm2.203125 0.546875q0 1.171875 0.296875 1.71875q0.3125 0.53125 0.984375 0.53125q0.671875 0 1.0 -0.5l0 -4.03125q-0.34375 -0.546875 -0.984375 -0.546875q-0.65625 0 -0.984375 0.546875q-0.3125 0.53125 -0.3125 1.734375l0 0.546875zm10.125 3.9375q-0.09375 -0.203125 -0.1875 -0.65625q-0.59375 0.8125 -1.609375 0.8125q-1.0625 0 -1.765625 -0.703125q-0.703125 -0.703125 -0.703125 -1.828125q0 -1.328125 0.84375 -2.046875q0.859375 -0.734375 2.453125 -0.75l0.671875 0l0 -0.671875q0 -0.578125 -0.203125 -0.8125q-0.1875 -0.234375 -0.5625 -0.234375q-0.828125 0 -0.828125 0.96875l-2.21875 0q0 -1.171875 0.875 -1.921875q0.890625 -0.765625 2.234375 -0.765625q1.390625 0 2.140625 0.71875q0.765625 0.71875 0.765625 2.0625l0 3.984375q0.015625 1.09375 0.3125 1.703125l0 0.140625l-2.21875 0zm-1.3125 -1.578125q0.375 0 0.625 -0.140625q0.265625 -0.15625 0.390625 -0.359375l0 -1.765625l-0.53125 0q-0.5625 0 -0.890625 0.359375q-0.328125 0.359375 -0.328125 0.96875q0 0.9375 0.734375 0.9375zm7.265625 -0.265625l3.34375 0l0 1.84375l-5.96875 0l0 -1.390625l3.265625 -5.21875l-3.1875 0l0 -1.84375l5.84375 0l0 1.328125l-3.296875 5.28125zm7.1171875 1.84375l-2.21875 0l0 -8.453125l2.21875 0l0 8.453125zm-2.3125 -10.640625q0 -0.515625 0.328125 -0.84375q0.328125 -0.328125 0.875 -0.328125q0.546875 0 0.875 0.328125q0.328125 0.328125 0.328125 0.84375q0 0.5 -0.328125 0.84375q-0.328125 0.328125 -0.890625 0.328125q-0.546875 0 -0.875 -0.328125q-0.3125 -0.34375 -0.3125 -0.84375zm6.046875 2.1875l0.0625 0.828125q0.75 -0.984375 1.96875 -0.984375q2.171875 0 2.234375 3.046875l0 5.5625l-2.21875 0l0 -5.390625q0 -0.71875 -0.21875 -1.046875q-0.203125 -0.328125 -0.75 -0.328125q-0.59375 0 -0.9375 0.625l0 6.140625l-2.21875 0l0 -8.453125l2.078125 0zm9.265625 8.609375q-1.703125 0 -2.65625 -1.015625q-0.953125 -1.015625 -0.953125 -2.90625l0 -0.671875q0 -2.0 0.875 -3.078125q0.875 -1.09375 2.515625 -1.09375q1.59375 0 2.390625 1.015625q0.8125 1.015625 0.828125 3.015625l0 1.09375l-4.40625 0q0.046875 0.9375 0.40625 1.375q0.375 0.421875 1.140625 0.421875q1.109375 0 1.859375 -0.75l0.859375 1.328125q-0.40625 0.5625 -1.1875 0.921875q-0.765625 0.34375 -1.671875 0.34375zm-1.390625 -5.1875l2.21875 0l0 -0.203125q-0.015625 -0.765625 -0.25 -1.15625q-0.234375 -0.390625 -0.8125 -0.390625q-0.578125 0 -0.84375 0.421875q-0.265625 0.40625 -0.3125 1.328125z" fill-rule="nonzero"></path></g></svg>

