<?xml version="1.0" standalone="yes"?>

<svg version="1.1" viewBox="0.0 0.0 518.3989501312336 96.0" fill="none" stroke="none" stroke-linecap="square" stroke-miterlimit="10" xmlns="http://www.w3.org/2000/svg" xmlns:xlink="http://www.w3.org/1999/xlink"><clipPath id="p.0"><path d="m0 0l518.3989 0l0 96.0l-518.3989 0l0 -96.0z" clip-rule="nonzero"></path></clipPath><g clip-path="url(#p.0)"><path fill="#000000" fill-opacity="0.0" d="m0 0l518.3989 0l0 96.0l-518.3989 0z" fill-rule="nonzero"></path><path fill="#000000" fill-opacity="0.0" d="m58.733696 8.614173l402.07874 0l0 78.77165l-402.07874 0z" fill-rule="nonzero"></path><path fill="#666666" d="m206.28732 34.63333l0 -3.640623l-6.0 0l0 3.640623l-2.359375 0l0 -8.718748l2.359375 0l0 3.171875l6.0 0l0 -3.171875l2.34375 0l0 8.718748l-2.34375 0zm5.4112854 0l0 -8.718748l2.359375 0l0 8.718748l-2.359375 0zm10.837814 -8.937498q1.28125 0 2.375 0.21875q1.109375 0.21875 2.03125 0.5625l0 2.125q-0.359375 -0.203125 -0.8125 -0.390625q-0.453125 -0.1875 -1.0 -0.328125q-0.53125 -0.15625 -1.140625 -0.234375q-0.609375 -0.09375 -1.28125 -0.09375q-0.828125 0 -1.453125 0.125q-0.625 0.109375 -1.078125 0.3125q-0.4375 0.203125 -0.71875 0.484375q-0.28125 0.265625 -0.453125 0.578125q-0.171875 0.296875 -0.234375 0.609375q-0.0625 0.3125 -0.0625 0.609375q0 0.265625 0.046875 0.578125q0.0625 0.296875 0.203125 0.609375q0.15625 0.296875 0.421875 0.5781231q0.265625 0.28125 0.6875 0.5q0.4375 0.203125 1.03125 0.34375q0.609375 0.125 1.453125 0.125q0.421875 0 0.71875 -0.015625q0.3125 -0.03125 0.5625 -0.078125q0.265625 -0.046875 0.484375 -0.109375q0.234375 -0.0625 0.484375 -0.140625l0 -1.0468731l-2.640625 0l0 -1.90625l4.984375 0l0 4.453123q-0.46875 0.15625 -1.046875 0.296875q-0.578125 0.125 -1.203125 0.21875q-0.609375 0.09375 -1.234375 0.140625q-0.625 0.046875 -1.171875 0.046875q-0.859375 0 -1.65625 -0.125q-0.78125 -0.109375 -1.46875 -0.34375q-0.671875 -0.234375 -1.234375 -0.59375q-0.5625 -0.375 -0.96875 -0.875q-0.390625 -0.515625 -0.609375 -1.1718731q-0.21875 -0.65625 -0.21875 -1.484375q0 -0.8125 0.21875 -1.46875q0.234375 -0.65625 0.640625 -1.15625q0.421875 -0.515625 0.984375 -0.875q0.578125 -0.375 1.265625 -0.609375q0.6875 -0.25 1.46875 -0.359375q0.796875 -0.109375 1.625 -0.109375zm15.821716 8.937498l0 -3.640623l-6.0 0l0 3.640623l-2.359375 0l0 -8.718748l2.359375 0l0 3.171875l6.0 0l0 -3.171875l2.34375 0l0 8.718748l-2.34375 0zm18.469223 -6.265623q-0.25 -0.125 -0.65625 -0.265625q-0.40625 -0.15625 -0.921875 -0.296875q-0.515625 -0.140625 -1.125 -0.21875q-0.59375 -0.09375 -1.234375 -0.09375q-0.5 0 -0.859375 0.03125q-0.359375 0.03125 -0.609375 0.078125q-0.234375 0.046875 -0.390625 0.125q-0.140625 0.0625 -0.21875 0.140625q-0.078125 0.0625 -0.09375 0.140625q-0.015625 0.0625 -0.015625 0.109375q0 0.1875 0.1875 0.34375q0.1875 0.140625 0.515625 0.25q0.328125 0.109375 0.765625 0.203125q0.4375 0.09375 0.921875 0.203125q0.5 0.109375 1.015625 0.234375q0.53125 0.125 1.015625 0.296875q0.5 0.15625 0.9375 0.375q0.4375 0.21875 0.765625 0.515625q0.34375 0.28125 0.53125 0.671875q0.1875 0.375 0.1875 0.8593731q0 0.625 -0.21875 1.078125q-0.21875 0.453125 -0.59375 0.765625q-0.375 0.3125 -0.875 0.5q-0.484375 0.1875 -1.015625 0.28125q-0.53125 0.109375 -1.078125 0.140625q-0.546875 0.03125 -1.046875 0.03125q-1.296875 0 -2.40625 -0.21875q-1.09375 -0.203125 -1.9375 -0.53125l0 -2.078125q0.875 0.484375 1.984375 0.765625q1.109375 0.265625 2.375 0.265625q0.75 0 1.21875 -0.078125q0.484375 -0.078125 0.75 -0.203125q0.265625 -0.125 0.359375 -0.265625q0.09375 -0.15625 0.09375 -0.28125q0 -0.21875 -0.1875 -0.3593731q-0.1875 -0.15625 -0.515625 -0.28125q-0.328125 -0.125 -0.765625 -0.21875q-0.4375 -0.09375 -0.9375 -0.1875q-0.484375 -0.109375 -1.015625 -0.21875q-0.515625 -0.109375 -1.015625 -0.265625q-0.484375 -0.15625 -0.921875 -0.359375q-0.4375 -0.21875 -0.765625 -0.5q-0.328125 -0.28125 -0.53125 -0.640625q-0.1875 -0.375 -0.1875 -0.875q0 -0.578125 0.203125 -0.984375q0.203125 -0.421875 0.546875 -0.71875q0.359375 -0.296875 0.8125 -0.484375q0.453125 -0.1875 0.953125 -0.28125q0.5 -0.109375 1.015625 -0.140625q0.515625 -0.03125 0.96875 -0.03125q0.515625 0 1.046875 0.046875q0.53125 0.046875 1.046875 0.140625q0.53125 0.09375 1.015625 0.21875q0.484375 0.109375 0.90625 0.25l0 2.015625zm12.827637 5.671873q-0.453125 0.1875 -0.921875 0.34375q-0.453125 0.140625 -0.953125 0.25q-0.5 0.125 -1.046875 0.171875q-0.546875 0.0625 -1.171875 0.0625q-1.328125 0 -2.453125 -0.28125q-1.125 -0.296875 -1.9375 -0.859375q-0.796875 -0.578125 -1.25 -1.4375q-0.453125 -0.8593731 -0.453125 -2.015623q0 -1.140625 0.453125 -2.0q0.453125 -0.859375 1.25 -1.4375q0.8125 -0.578125 1.9375 -0.859375q1.125 -0.28125 2.453125 -0.28125q0.625 0 1.171875 0.0625q0.546875 0.046875 1.046875 0.15625q0.5 0.109375 0.953125 0.265625q0.46875 0.15625 0.921875 0.34375l0 2.109375q-0.359375 -0.1875 -0.765625 -0.375q-0.390625 -0.203125 -0.875 -0.359375q-0.484375 -0.15625 -1.0625 -0.25q-0.578125 -0.09375 -1.296875 -0.09375q-1.109375 0 -1.84375 0.234375q-0.734375 0.21875 -1.171875 0.609375q-0.4375 0.375 -0.625 0.875q-0.171875 0.484375 -0.171875 1.0q0 0.359375 0.078125 0.703125q0.078125 0.328125 0.25 0.640625q0.1875 0.296875 0.46875 0.5468731q0.28125 0.25 0.703125 0.4375q0.4375 0.1875 1.0 0.296875q0.578125 0.09375 1.3125 0.09375q0.71875 0 1.296875 -0.09375q0.578125 -0.09375 1.0625 -0.234375q0.484375 -0.15625 0.875 -0.34375q0.40625 -0.203125 0.765625 -0.4062481l0 2.124998l0 0zm10.854645 0.59375l0 -3.640623l-6.0 0l0 3.640623l-2.359375 0l0 -8.718748l2.359375 0l0 3.171875l6.0 0l0 -3.171875l2.34375 0l0 8.718748l-2.34375 0zm16.70816 -4.359373q0 1.125 -0.421875 1.9843731q-0.40625 0.859375 -1.171875 1.4375q-0.765625 0.578125 -1.875 0.875q-1.09375 0.296875 -2.453125 0.296875q-1.359375 0 -2.46875 -0.296875q-1.09375 -0.296875 -1.875 -0.875q-0.765625 -0.578125 -1.1875 -1.4375q-0.421875 -0.8593731 -0.421875 -1.9843731q0 -1.125 0.421875 -1.984375q0.421875 -0.859375 1.1875 -1.4375q0.78125 -0.578125 1.875 -0.859375q1.109375 -0.296875 2.46875 -0.296875q1.359375 0 2.453125 0.296875q1.109375 0.28125 1.875 0.859375q0.765625 0.578125 1.171875 1.4375q0.421875 0.859375 0.421875 1.984375zm-2.390625 0q0 -0.484375 -0.15625 -0.96875q-0.15625 -0.484375 -0.546875 -0.875q-0.390625 -0.390625 -1.078125 -0.625q-0.6875 -0.25 -1.75 -0.25q-0.703125 0 -1.25 0.125q-0.546875 0.109375 -0.9375 0.3125q-0.390625 0.1875 -0.65625 0.453125q-0.265625 0.265625 -0.421875 0.5625q-0.15625 0.296875 -0.234375 0.625q-0.0625 0.328125 -0.0625 0.640625q0 0.328125 0.0625 0.65625q0.078125 0.328125 0.234375 0.640625q0.15625 0.296875 0.421875 0.5624981q0.265625 0.25 0.65625 0.453125q0.390625 0.1875 0.9375 0.296875q0.546875 0.109375 1.25 0.109375q1.0625 0 1.75 -0.234375q0.6875 -0.25 1.078125 -0.625q0.390625 -0.3906231 0.546875 -0.8749981q0.15625 -0.484375 0.15625 -0.984375zm16.161285 0q0 1.125 -0.421875 1.9843731q-0.40625 0.859375 -1.171875 1.4375q-0.765625 0.578125 -1.875 0.875q-1.09375 0.296875 -2.453125 0.296875q-1.359375 0 -2.46875 -0.296875q-1.09375 -0.296875 -1.875 -0.875q-0.765625 -0.578125 -1.1875 -1.4375q-0.421875 -0.8593731 -0.421875 -1.9843731q0 -1.125 0.421875 -1.984375q0.421875 -0.859375 1.1875 -1.4375q0.78125 -0.578125 1.875 -0.859375q1.109375 -0.296875 2.46875 -0.296875q1.359375 0 2.453125 0.296875q1.109375 0.28125 1.875 0.859375q0.765625 0.578125 1.171875 1.4375q0.421875 0.859375 0.421875 1.984375zm-2.390625 0q0 -0.484375 -0.15625 -0.96875q-0.15625 -0.484375 -0.546875 -0.875q-0.390625 -0.390625 -1.078125 -0.625q-0.6875 -0.25 -1.75 -0.25q-0.703125 0 -1.25 0.125q-0.546875 0.109375 -0.9375 0.3125q-0.390625 0.1875 -0.65625 0.453125q-0.265625 0.265625 -0.421875 0.5625q-0.15625 0.296875 -0.234375 0.625q-0.0625 0.328125 -0.0625 0.640625q0 0.328125 0.0625 0.65625q0.078125 0.328125 0.234375 0.640625q0.15625 0.296875 0.421875 0.5624981q0.265625 0.25 0.65625 0.453125q0.390625 0.1875 0.9375 0.296875q0.546875 0.109375 1.25 0.109375q1.0625 0 1.75 -0.234375q0.6875 -0.25 1.078125 -0.625q0.390625 -0.3906231 0.546875 -0.8749981q0.15625 -0.484375 0.15625 -0.984375zm4.8644104 4.359373l0 -8.718748l2.3594055 0l0 6.812498l6.375 0l0 1.90625l-8.7344055 0z" fill-rule="nonzero"></path><path fill="#38761d" d="m95.40197 54.193333l0 -10.734375l10.859375 0l0 2.28125l-7.890625 0l0 1.78125l7.484375 0l0 2.28125l-7.484375 0l0 2.09375l8.0 0l0 2.296875l-10.96875 0zm23.914062 0l-7.25 -7.375l0 7.375l-2.890625 0l0 -10.734375l3.140625 0l7.25 7.40625l0 -7.40625l2.890625 0l0 10.734375l-3.140625 0zm13.703117 0l-3.375 0l-5.4374924 -10.734375l3.234375 0l3.9062424 8.078125l3.90625 -8.078125l3.234375 0l-5.46875 10.734375zm7.2265625 0l0 -10.734375l2.890625 0l0 10.734375l-2.890625 0zm9.1484375 0l-2.890625 0l0 -10.734375l7.265625 0q1.171875 0 1.984375 0.25q0.8125 0.234375 1.328125 0.6875q0.515625 0.4375 0.734375 1.0625q0.234375 0.625 0.234375 1.40625q0 0.671875 -0.1875 1.1875q-0.1875 0.5 -0.515625 0.875q-0.328125 0.359375 -0.765625 0.609375q-0.421875 0.25 -0.890625 0.40625l3.515625 4.25l-3.390625 0l-3.25 -3.953125l-3.171875 0l0 3.953125zm5.734375 -7.34375q0 -0.3125 -0.09375 -0.53125q-0.078125 -0.21875 -0.28125 -0.359375q-0.203125 -0.140625 -0.546875 -0.203125q-0.328125 -0.0625 -0.84375 -0.0625l-3.96875 0l0 2.296875l3.96875 0q0.515625 0 0.84375 -0.0625q0.34375 -0.0625 0.546875 -0.1875q0.203125 -0.140625 0.28125 -0.359375q0.09375 -0.21875 0.09375 -0.53125zm20.046875 1.984375q0 1.375 -0.515625 2.4375q-0.5 1.0625 -1.453125 1.78125q-0.9375 0.703125 -2.296875 1.078125q-1.34375 0.359375 -3.015625 0.359375q-1.6875 0 -3.046875 -0.359375q-1.34375 -0.375 -2.296875 -1.078125q-0.953125 -0.71875 -1.46875 -1.78125q-0.515625 -1.0625 -0.515625 -2.4375q0 -1.390625 0.515625 -2.4375q0.515625 -1.0625 1.46875 -1.765625q0.953125 -0.71875 2.296875 -1.078125q1.359375 -0.375 3.046875 -0.375q1.671875 0 3.015625 0.375q1.359375 0.359375 2.296875 1.078125q0.953125 0.703125 1.453125 1.765625q0.515625 1.046875 0.515625 2.4375zm-2.9375 0q0 -0.609375 -0.1875 -1.203125q-0.1875 -0.59375 -0.6875 -1.0625q-0.484375 -0.484375 -1.328125 -0.78125q-0.84375 -0.296875 -2.140625 -0.296875q-0.875 0 -1.546875 0.140625q-0.65625 0.125 -1.140625 0.375q-0.484375 0.234375 -0.8125 0.5625q-0.328125 0.328125 -0.53125 0.703125q-0.1875 0.359375 -0.28125 0.765625q-0.078125 0.40625 -0.078125 0.796875q0 0.390625 0.078125 0.796875q0.09375 0.40625 0.28125 0.78125q0.203125 0.375 0.53125 0.703125q0.328125 0.3125 0.8125 0.546875q0.484375 0.234375 1.140625 0.375q0.671875 0.140625 1.546875 0.140625q1.296875 0 2.140625 -0.296875q0.84375 -0.296875 1.328125 -0.765625q0.5 -0.484375 0.6875 -1.078125q0.1875 -0.609375 0.1875 -1.203125zm15.71875 5.359375l-7.25 -7.375l0 7.375l-2.890625 0l0 -10.734375l3.140625 0l7.25 7.40625l0 -7.40625l2.890625 0l0 10.734375l-3.140625 0zm20.140625 0l0 -7.546875l-3.984375 7.546875l-2.78125 0l-3.984375 -7.546875l0 7.546875l-2.890625 0l0 -10.734375l3.9375 0l4.328125 8.125l4.34375 -8.125l3.921875 0l0 10.734375l-2.890625 0zm6.25 0l0 -10.734375l10.859375 0l0 2.28125l-7.890625 0l0 1.78125l7.484375 0l0 2.28125l-7.484375 0l0 2.09375l8.0 0l0 2.296875l-10.96875 0zm23.914062 0l-7.25 -7.375l0 7.375l-2.890625 0l0 -10.734375l3.140625 0l7.25 7.40625l0 -7.40625l2.890625 0l0 10.734375l-3.140625 0zm12.515625 -8.40625l0 8.40625l-2.90625 0l0 -8.40625l-4.546875 0l0 -2.328125l12.015625 0l0 2.328125l-4.5625 0zm15.101578 6.375l-5.984375 0l-1.015625 2.03125l-3.2343903 0l5.6250153 -10.734375l3.234375 0l5.609375 10.734375l-3.234375 0l-1.0 -2.03125zm-4.953125 -2.09375l3.921875 0l-1.953125 -3.953125l-1.96875 3.953125zm10.953125 4.125l0 -10.734375l2.890625 0l0 8.375l7.84375 0l0 2.359375l-10.734375 0z" fill-rule="nonzero"></path><path fill="#cc0000" d="m290.94885 54.193333l0 -10.734375l2.890625 0l0 8.375l7.84375 0l0 2.359375l-10.734375 0zm13.0546875 0l0 -10.734375l10.859375 0l0 2.28125l-7.890625 0l0 1.78125l7.484375 0l0 2.28125l-7.484375 0l0 2.09375l8.0 0l0 2.296875l-10.96875 0zm22.398438 -2.03125l-5.984375 0l-1.015625 2.03125l-3.234375 0l5.625 -10.734375l3.234375 0l5.609375 10.734375l-3.234375 0l-1.0 -2.03125zm-4.953125 -2.09375l3.921875 0l-1.953125 -3.953125l-1.96875 3.953125zm24.09375 -1.25q0 1.03125 -0.234375 1.828125q-0.21875 0.796875 -0.625 1.390625q-0.40625 0.59375 -0.984375 1.015625q-0.578125 0.40625 -1.28125 0.65625q-0.703125 0.25 -1.515625 0.375q-0.8125 0.109375 -1.6875 0.109375l-6.8125 0l0 -10.734375l6.796875 0q0.875 0 1.6875 0.109375q0.8125 0.109375 1.515625 0.359375q0.71875 0.25 1.296875 0.671875q0.578125 0.40625 0.984375 1.0q0.40625 0.59375 0.625 1.390625q0.234375 0.796875 0.234375 1.828125zm-2.921875 0q0 -0.78125 -0.203125 -1.34375q-0.1875 -0.578125 -0.640625 -0.9375q-0.4375 -0.375 -1.15625 -0.5625q-0.703125 -0.1875 -1.71875 -0.1875l-3.609375 0l0 6.0625l3.609375 0q1.015625 0 1.71875 -0.171875q0.71875 -0.1875 1.15625 -0.5625q0.453125 -0.390625 0.640625 -0.953125q0.203125 -0.578125 0.203125 -1.34375zm5.5703125 5.375l0 -10.734375l10.859375 0l0 2.28125l-7.890625 0l0 1.78125l7.484375 0l0 2.28125l-7.484375 0l0 2.09375l8.0 0l0 2.296875l-10.96875 0zm16.664062 0l-2.890625 0l0 -10.734375l7.265625 0q1.171875 0 1.984375 0.25q0.8125 0.234375 1.328125 0.6875q0.515625 0.4375 0.734375 1.0625q0.234375 0.625 0.234375 1.40625q0 0.671875 -0.1875 1.1875q-0.1875 0.5 -0.515625 0.875q-0.328125 0.359375 -0.765625 0.609375q-0.421875 0.25 -0.890625 0.40625l3.515625 4.25l-3.390625 0l-3.25 -3.953125l-3.171875 0l0 3.953125zm5.734375 -7.34375q0 -0.3125 -0.09375 -0.53125q-0.078125 -0.21875 -0.28125 -0.359375q-0.203125 -0.140625 -0.546875 -0.203125q-0.328125 -0.0625 -0.84375 -0.0625l-3.96875 0l0 2.296875l3.96875 0q0.515625 0 0.84375 -0.0625q0.34375 -0.0625 0.546875 -0.1875q0.203125 -0.140625 0.28125 -0.359375q0.09375 -0.21875 0.09375 -0.53125zm16.046875 -0.375q-0.3125 -0.140625 -0.8125 -0.328125q-0.5 -0.1875 -1.140625 -0.359375q-0.625 -0.171875 -1.375 -0.28125q-0.734375 -0.109375 -1.515625 -0.109375q-0.625 0 -1.0625 0.046875q-0.4375 0.03125 -0.75 0.09375q-0.296875 0.0625 -0.46875 0.140625q-0.171875 0.078125 -0.265625 0.171875q-0.09375 0.078125 -0.125 0.171875q-0.03125 0.078125 -0.03125 0.15625q0 0.234375 0.234375 0.40625q0.234375 0.171875 0.640625 0.3125q0.40625 0.140625 0.9375 0.265625q0.546875 0.109375 1.15625 0.25q0.609375 0.125 1.25 0.28125q0.640625 0.140625 1.25 0.34375q0.609375 0.203125 1.140625 0.484375q0.546875 0.265625 0.953125 0.625q0.40625 0.359375 0.640625 0.828125q0.234375 0.46875 0.234375 1.0625q0 0.78125 -0.28125 1.34375q-0.265625 0.546875 -0.734375 0.9375q-0.453125 0.375 -1.0625 0.609375q-0.59375 0.21875 -1.25 0.34375q-0.65625 0.140625 -1.34375 0.171875q-0.671875 0.046875 -1.28125 0.046875q-1.59375 0 -2.953125 -0.265625q-1.34375 -0.265625 -2.390625 -0.65625l0 -2.5625q1.078125 0.59375 2.4375 0.9375q1.375 0.328125 2.9375 0.328125q0.921875 0 1.5 -0.09375q0.59375 -0.109375 0.921875 -0.25q0.328125 -0.15625 0.4375 -0.328125q0.125 -0.1875 0.125 -0.359375q0 -0.25 -0.234375 -0.4375q-0.234375 -0.203125 -0.640625 -0.34375q-0.40625 -0.140625 -0.953125 -0.265625q-0.53125 -0.125 -1.140625 -0.234375q-0.609375 -0.125 -1.25 -0.265625q-0.640625 -0.140625 -1.25 -0.328125q-0.59375 -0.203125 -1.140625 -0.453125q-0.53125 -0.25 -0.9375 -0.59375q-0.40625 -0.359375 -0.640625 -0.8125q-0.234375 -0.453125 -0.234375 -1.0625q0 -0.703125 0.25 -1.21875q0.25 -0.515625 0.671875 -0.875q0.421875 -0.375 0.984375 -0.59375q0.5625 -0.234375 1.171875 -0.359375q0.625 -0.125 1.25 -0.171875q0.640625 -0.046875 1.203125 -0.046875q0.625 0 1.28125 0.0625q0.671875 0.0625 1.3125 0.1875q0.640625 0.109375 1.234375 0.265625q0.59375 0.140625 1.109375 0.296875l0 2.484375zm13.8984375 7.71875l0 -4.484375l-7.375 0l0 4.484375l-2.890625 0l0 -10.734375l2.890625 0l0 3.90625l7.375 0l0 -3.90625l2.90625 0l0 10.734375l-2.90625 0zm6.265625 0l0 -10.734375l2.890625 0l0 10.734375l-2.890625 0zm18.320312 -7.078125q0 0.8125 -0.234375 1.484375q-0.234375 0.671875 -0.765625 1.171875q-0.515625 0.484375 -1.34375 0.765625q-0.828125 0.265625 -2.015625 0.265625l-4.8125 0l0 3.390625l-2.890625 0l0 -10.734375l7.703125 0q1.1875 0 2.015625 0.265625q0.828125 0.265625 1.34375 0.765625q0.53125 0.484375 0.765625 1.15625q0.234375 0.671875 0.234375 1.46875zm-2.9375 0.046875q0 -0.375 -0.109375 -0.640625q-0.09375 -0.265625 -0.34375 -0.4375q-0.234375 -0.171875 -0.625 -0.25q-0.390625 -0.09375 -0.96875 -0.09375l-4.1875 0l0 2.765625l4.1875 0q0.578125 0 0.96875 -0.0625q0.390625 -0.0625 0.625 -0.21875q0.25 -0.171875 0.34375 -0.421875q0.109375 -0.265625 0.109375 -0.640625z" fill-rule="nonzero"></path><path fill="#666666" d="m224.8041 66.88333q0 0.65625 -0.203125 1.203125q-0.1875 0.546875 -0.609375 0.953125q-0.421875 0.390625 -1.09375 0.625q-0.671875 0.21875 -1.640625 0.21875l-3.90625 0l0 2.75l-2.359375 0l0 -8.71875l6.265625 0q0.96875 0 1.640625 0.21875q0.671875 0.21875 1.09375 0.625q0.421875 0.390625 0.609375 0.9375q0.203125 0.53125 0.203125 1.1875zm-2.390625 0.046875q0 -0.3125 -0.09375 -0.53125q-0.078125 -0.21875 -0.28125 -0.359375q-0.1875 -0.140625 -0.515625 -0.203125q-0.3125 -0.0625 -0.765625 -0.0625l-3.40625 0l0 2.25l3.40625 0q0.453125 0 0.765625 -0.046875q0.328125 -0.0625 0.515625 -0.1875q0.203125 -0.140625 0.28125 -0.34375q0.09375 -0.21875 0.09375 -0.515625zm6.9835815 5.703125l-2.359375 0l0 -8.71875l5.90625 0q0.953125 0 1.609375 0.203125q0.671875 0.1875 1.078125 0.546875q0.421875 0.359375 0.609375 0.875q0.1875 0.515625 0.1875 1.140625q0 0.546875 -0.15625 0.96875q-0.15625 0.40625 -0.421875 0.703125q-0.25 0.296875 -0.609375 0.5q-0.34375 0.203125 -0.734375 0.328125l2.859375 3.453125l-2.75 0l-2.640625 -3.21875l-2.578125 0l0 3.21875zm4.65625 -5.96875q0 -0.25 -0.078125 -0.421875q-0.0625 -0.1875 -0.234375 -0.296875q-0.15625 -0.109375 -0.4375 -0.15625q-0.265625 -0.0625 -0.6875 -0.0625l-3.21875 0l0 1.875l3.21875 0q0.421875 0 0.6875 -0.046875q0.28125 -0.0625 0.4375 -0.171875q0.171875 -0.109375 0.234375 -0.28125q0.078125 -0.1875 0.078125 -0.4375zm16.594147 1.609375q0 1.125 -0.421875 1.984375q-0.40625 0.859375 -1.171875 1.4375q-0.765625 0.578125 -1.875 0.875q-1.09375 0.296875 -2.453125 0.296875q-1.359375 0 -2.46875 -0.296875q-1.09375 -0.296875 -1.875 -0.875q-0.765625 -0.578125 -1.1875 -1.4375q-0.421875 -0.859375 -0.421875 -1.984375q0 -1.125 0.421875 -1.984375q0.421875 -0.859375 1.1875 -1.4375q0.78125 -0.578125 1.875 -0.859375q1.109375 -0.296875 2.46875 -0.296875q1.359375 0 2.453125 0.296875q1.109375 0.28125 1.875 0.859375q0.765625 0.578125 1.171875 1.4375q0.421875 0.859375 0.421875 1.984375zm-2.390625 0q0 -0.484375 -0.15625 -0.96875q-0.15625 -0.484375 -0.546875 -0.875q-0.390625 -0.390625 -1.078125 -0.625q-0.6875 -0.25 -1.75 -0.25q-0.703125 0 -1.25 0.125q-0.546875 0.109375 -0.9375 0.3125q-0.390625 0.1875 -0.65625 0.453125q-0.265625 0.265625 -0.421875 0.5625q-0.15625 0.296875 -0.234375 0.625q-0.0625 0.328125 -0.0625 0.640625q0 0.328125 0.0625 0.65625q0.078125 0.328125 0.234375 0.640625q0.15625 0.296875 0.421875 0.5625q0.265625 0.25 0.65625 0.453125q0.390625 0.1875 0.9375 0.296875q0.546875 0.109375 1.25 0.109375q1.0625 0 1.75 -0.234375q0.6875 -0.25 1.078125 -0.625q0.390625 -0.390625 0.546875 -0.875q0.15625 -0.484375 0.15625 -0.984375zm10.489426 -4.578125q1.28125 0 2.375 0.21875q1.109375 0.21875 2.03125 0.5625l0 2.125q-0.359375 -0.203125 -0.8125 -0.390625q-0.453125 -0.1875 -1.0 -0.328125q-0.53125 -0.15625 -1.140625 -0.234375q-0.609375 -0.09375 -1.28125 -0.09375q-0.828125 0 -1.453125 0.125q-0.625 0.109375 -1.078125 0.3125q-0.43751526 0.203125 -0.71876526 0.484375q-0.28125 0.265625 -0.453125 0.578125q-0.171875 0.296875 -0.234375 0.609375q-0.0625 0.3125 -0.0625 0.609375q0 0.265625 0.046875 0.578125q0.0625 0.296875 0.203125 0.609375q0.15625 0.296875 0.421875 0.578125q0.265625 0.28125 0.68751526 0.5q0.4375 0.203125 1.03125 0.34375q0.609375 0.125 1.453125 0.125q0.421875 0 0.71875 -0.015625q0.3125 -0.03125 0.5625 -0.078125q0.265625 -0.046875 0.484375 -0.109375q0.234375 -0.0625 0.484375 -0.140625l0 -1.046875l-2.640625 0l0 -1.90625l4.984375 0l0 4.453125q-0.46875 0.15625 -1.046875 0.296875q-0.578125 0.125 -1.203125 0.21875q-0.609375 0.09375 -1.234375 0.140625q-0.625 0.046875 -1.171875 0.046875q-0.859375 0 -1.65625 -0.125q-0.78125 -0.109375 -1.4687653 -0.34375q-0.671875 -0.234375 -1.234375 -0.59375q-0.5625 -0.375 -0.96875 -0.875q-0.390625 -0.515625 -0.609375 -1.171875q-0.21875 -0.65625 -0.21875 -1.484375q0 -0.8125 0.21875 -1.46875q0.234375 -0.65625 0.640625 -1.15625q0.421875 -0.515625 0.984375 -0.875q0.578125 -0.375 1.265625 -0.609375q0.68751526 -0.25 1.4687653 -0.359375q0.796875 -0.109375 1.625 -0.109375zm9.821716 8.9375l-2.359375 0l0 -8.71875l5.90625 0q0.953125 0 1.609375 0.203125q0.671875 0.1875 1.078125 0.546875q0.421875 0.359375 0.609375 0.875q0.1875 0.515625 0.1875 1.140625q0 0.546875 -0.15625 0.96875q-0.15625 0.40625 -0.421875 0.703125q-0.25 0.296875 -0.609375 0.5q-0.34375 0.203125 -0.734375 0.328125l2.859375 3.453125l-2.75 0l-2.640625 -3.21875l-2.578125 0l0 3.21875zm4.65625 -5.96875q0 -0.25 -0.078125 -0.421875q-0.0625 -0.1875 -0.234375 -0.296875q-0.15625 -0.109375 -0.4375 -0.15625q-0.265625 -0.0625 -0.6875 -0.0625l-3.21875 0l0 1.875l3.21875 0q0.421875 0 0.6875 -0.046875q0.28125 -0.0625 0.4375 -0.171875q0.171875 -0.109375 0.234375 -0.28125q0.078125 -0.1875 0.078125 -0.4375zm12.312897 4.3125l-4.859375 0l-0.828125 1.65625l-2.625 0l4.5625 -8.71875l2.625 0l4.5625 8.71875l-2.625 0l-0.8125 -1.65625zm-4.015625 -1.703125l3.1875 0l-1.59375 -3.203125l-1.59375 3.203125zm20.27649 3.359375l0 -6.125l-3.234375 6.125l-2.265625 0l-3.234375 -6.125l0 6.125l-2.359375 0l0 -8.71875l3.203125 0l3.53125 6.59375l3.515625 -6.59375l3.1875 0l0 8.71875l-2.34375 0z" fill-rule="nonzero"></path><path fill="#000000" fill-opacity="0.0" d="m76.83857 60.248985c-16.960632 0 -25.440948 3.8346481 -33.92126 7.6692963c-8.480316 3.8346405 -16.96063 7.6692886 -33.92126 7.6692886" fill-rule="nonzero"></path><path stroke="#38761d" stroke-width="2.0" stroke-linejoin="round" stroke-linecap="butt" d="m76.83857 60.248985c-16.960632 0 -25.440948 3.8346481 -33.92126 7.6692963c-8.480316 3.8346405 -16.96063 7.6692886 -33.92126 7.6692886" fill-rule="nonzero"></path><path fill="#000000" fill-opacity="0.0" d="m76.09675 52.283455c-16.960632 0 -25.440948 3.8346443 -33.921265 7.6692924c-8.480312 3.8346443 -16.960629 7.6692924 -33.921257 7.6692924" fill-rule="nonzero"></path><path stroke="#980000" stroke-width="2.0" stroke-linejoin="round" stroke-linecap="butt" d="m76.09675 52.283455c-16.960632 0 -25.440948 3.8346443 -33.921265 7.6692924c-8.480312 3.8346443 -16.960629 7.6692924 -33.921257 7.6692924" fill-rule="nonzero"></path><path fill="#000000" fill-opacity="0.0" d="m75.35492 44.317924c-16.960629 0 -25.44094 3.8346443 -33.921257 7.6692886c-8.480316 3.8346481 -16.96063 7.6692924 -33.92126 7.6692924" fill-rule="nonzero"></path><path stroke="#1c4587" stroke-width="2.0" stroke-linejoin="round" stroke-linecap="butt" d="m75.35492 44.317924c-16.960629 0 -25.44094 3.8346443 -33.921257 7.6692886c-8.480316 3.8346481 -16.96063 7.6692924 -33.92126 7.6692924" fill-rule="nonzero"></path><path fill="#000000" fill-opacity="0.0" d="m443.04083 60.249252c16.59842 0 24.897644 3.8346405 33.19684 7.6692886c8.299225 3.8346481 16.59842 7.6692963 33.19687 7.6692963" fill-rule="nonzero"></path><path stroke="#38761d" stroke-width="2.0" stroke-linejoin="round" stroke-linecap="butt" d="m443.04083 60.249252c16.59842 0 24.897644 3.8346405 33.19684 7.6692886c8.299225 3.8346481 16.59842 7.6692963 33.19687 7.6692963" fill-rule="nonzero"></path><path fill="#000000" fill-opacity="0.0" d="m443.76685 52.283455c16.59842 0 24.897614 3.8346443 33.19684 7.6692924c8.299225 3.8346443 16.59842 7.6692924 33.19684 7.6692924" fill-rule="nonzero"></path><path stroke="#980000" stroke-width="2.0" stroke-linejoin="round" stroke-linecap="butt" d="m443.76685 52.283455c16.59842 0 24.897614 3.8346443 33.19684 7.6692924c8.299225 3.8346443 16.59842 7.6692924 33.19684 7.6692924" fill-rule="nonzero"></path><path fill="#000000" fill-opacity="0.0" d="m444.49286 44.31766c16.59842 0 24.897614 3.8346443 33.19684 7.6692886c8.299225 3.8346481 16.59842 7.6692924 33.19684 7.6692924" fill-rule="nonzero"></path><path stroke="#1c4587" stroke-width="2.0" stroke-linejoin="round" stroke-linecap="butt" d="m444.49286 44.31766c16.59842 0 24.897614 3.8346443 33.19684 7.6692886c8.299225 3.8346481 16.59842 7.6692924 33.19684 7.6692924" fill-rule="nonzero"></path></g></svg>

